<mxfile host="app.diagrams.net" agent="Mozilla/5.0 (Windows NT 10.0; Win64; x64) AppleWebKit/537.36 (KHTML, like Gecko) Chrome/127.0.0.0 Safari/537.36" version="27.0.3">
  <diagram name="第 1 页" id="xi07__yI1PXDLpg5h7e4">
    <mxGraphModel dx="2066" dy="1103" grid="1" gridSize="10" guides="1" tooltips="1" connect="1" arrows="1" fold="1" page="1" pageScale="1" pageWidth="827" pageHeight="1169" math="0" shadow="0" adaptiveColors="simple">
      <root>
        <mxCell id="0" />
        <mxCell id="1" parent="0" />
        <mxCell id="odrv6HUBPEatMj4lRxUb-2" value="&lt;div data-t=&quot;flow&quot; data-processon-v=&quot;{&amp;quot;list&amp;quot;:[{&amp;quot;id&amp;quot;:&amp;quot;BHakKmhXrR914055&amp;quot;,&amp;quot;name&amp;quot;:&amp;quot;basic_container&amp;quot;,&amp;quot;title&amp;quot;:&amp;quot;容器&amp;quot;,&amp;quot;category&amp;quot;:&amp;quot;basic&amp;quot;,&amp;quot;group&amp;quot;:&amp;quot;&amp;quot;,&amp;quot;groupName&amp;quot;:null,&amp;quot;locked&amp;quot;:false,&amp;quot;link&amp;quot;:&amp;quot;&amp;quot;,&amp;quot;children&amp;quot;:[],&amp;quot;parent&amp;quot;:&amp;quot;&amp;quot;,&amp;quot;resizeDir&amp;quot;:[&amp;quot;tl&amp;quot;,&amp;quot;tr&amp;quot;,&amp;quot;br&amp;quot;,&amp;quot;bl&amp;quot;,&amp;quot;l&amp;quot;,&amp;quot;t&amp;quot;,&amp;quot;r&amp;quot;,&amp;quot;b&amp;quot;],&amp;quot;attribute&amp;quot;:{&amp;quot;container&amp;quot;:true,&amp;quot;visible&amp;quot;:true,&amp;quot;rotatable&amp;quot;:true,&amp;quot;linkable&amp;quot;:true,&amp;quot;collapsable&amp;quot;:false,&amp;quot;collapsed&amp;quot;:false,&amp;quot;fixedLink&amp;quot;:false,&amp;quot;markerOffset&amp;quot;:5},&amp;quot;dataAttributes&amp;quot;:[{&amp;quot;name&amp;quot;:&amp;quot;序号&amp;quot;,&amp;quot;type&amp;quot;:&amp;quot;number&amp;quot;,&amp;quot;value&amp;quot;:&amp;quot;&amp;quot;,&amp;quot;category&amp;quot;:&amp;quot;default&amp;quot;,&amp;quot;id&amp;quot;:&amp;quot;ZLIgBDxiMv162407&amp;quot;},{&amp;quot;name&amp;quot;:&amp;quot;名称&amp;quot;,&amp;quot;type&amp;quot;:&amp;quot;string&amp;quot;,&amp;quot;value&amp;quot;:&amp;quot;&amp;quot;,&amp;quot;category&amp;quot;:&amp;quot;default&amp;quot;,&amp;quot;id&amp;quot;:&amp;quot;HjJTSikohe403814&amp;quot;},{&amp;quot;name&amp;quot;:&amp;quot;所有者&amp;quot;,&amp;quot;type&amp;quot;:&amp;quot;string&amp;quot;,&amp;quot;value&amp;quot;:&amp;quot;&amp;quot;,&amp;quot;category&amp;quot;:&amp;quot;default&amp;quot;,&amp;quot;id&amp;quot;:&amp;quot;AOarHLPmjd624908&amp;quot;},{&amp;quot;name&amp;quot;:&amp;quot;连接&amp;quot;,&amp;quot;type&amp;quot;:&amp;quot;link&amp;quot;,&amp;quot;value&amp;quot;:&amp;quot;&amp;quot;,&amp;quot;category&amp;quot;:&amp;quot;default&amp;quot;,&amp;quot;id&amp;quot;:&amp;quot;gvkkINNLCH071055&amp;quot;},{&amp;quot;name&amp;quot;:&amp;quot;便笺&amp;quot;,&amp;quot;type&amp;quot;:&amp;quot;string&amp;quot;,&amp;quot;value&amp;quot;:&amp;quot;&amp;quot;,&amp;quot;category&amp;quot;:&amp;quot;default&amp;quot;,&amp;quot;id&amp;quot;:&amp;quot;kXZQwvzRUS795080&amp;quot;}],&amp;quot;props&amp;quot;:{&amp;quot;x&amp;quot;:61,&amp;quot;y&amp;quot;:9109,&amp;quot;w&amp;quot;:732,&amp;quot;h&amp;quot;:482,&amp;quot;zindex&amp;quot;:-1,&amp;quot;angle&amp;quot;:0},&amp;quot;shapeStyle&amp;quot;:{&amp;quot;alpha&amp;quot;:1},&amp;quot;lineStyle&amp;quot;:{&amp;quot;rounding&amp;quot;:4,&amp;quot;lineWidth&amp;quot;:1.5},&amp;quot;fillStyle&amp;quot;:{},&amp;quot;theme&amp;quot;:{},&amp;quot;path&amp;quot;:[{&amp;quot;actions&amp;quot;:[{&amp;quot;action&amp;quot;:&amp;quot;move&amp;quot;,&amp;quot;x&amp;quot;:&amp;quot;0&amp;quot;,&amp;quot;y&amp;quot;:&amp;quot;0&amp;quot;},{&amp;quot;action&amp;quot;:&amp;quot;line&amp;quot;,&amp;quot;x&amp;quot;:&amp;quot;w&amp;quot;,&amp;quot;y&amp;quot;:&amp;quot;0&amp;quot;},{&amp;quot;action&amp;quot;:&amp;quot;line&amp;quot;,&amp;quot;x&amp;quot;:&amp;quot;w&amp;quot;,&amp;quot;y&amp;quot;:&amp;quot;h&amp;quot;},{&amp;quot;action&amp;quot;:&amp;quot;line&amp;quot;,&amp;quot;x&amp;quot;:&amp;quot;0&amp;quot;,&amp;quot;y&amp;quot;:&amp;quot;h&amp;quot;},{&amp;quot;action&amp;quot;:&amp;quot;close&amp;quot;}]}],&amp;quot;fontStyle&amp;quot;:{},&amp;quot;textBlock&amp;quot;:[{&amp;quot;position&amp;quot;:{&amp;quot;x&amp;quot;:&amp;quot;5&amp;quot;,&amp;quot;y&amp;quot;:&amp;quot;2&amp;quot;,&amp;quot;w&amp;quot;:&amp;quot;w-10&amp;quot;,&amp;quot;h&amp;quot;:&amp;quot;h*(1/7)-2&amp;quot;},&amp;quot;text&amp;quot;:&amp;quot;QCoreApplication&amp;quot;}],&amp;quot;anchors&amp;quot;:[{&amp;quot;x&amp;quot;:&amp;quot;w/2&amp;quot;,&amp;quot;y&amp;quot;:&amp;quot;0&amp;quot;},{&amp;quot;x&amp;quot;:&amp;quot;w/2&amp;quot;,&amp;quot;y&amp;quot;:&amp;quot;h&amp;quot;},{&amp;quot;x&amp;quot;:&amp;quot;0&amp;quot;,&amp;quot;y&amp;quot;:&amp;quot;h/2&amp;quot;},{&amp;quot;x&amp;quot;:&amp;quot;w&amp;quot;,&amp;quot;y&amp;quot;:&amp;quot;h/2&amp;quot;}]},{&amp;quot;id&amp;quot;:&amp;quot;grTAZNaGTi273086&amp;quot;,&amp;quot;name&amp;quot;:&amp;quot;rectangle&amp;quot;,&amp;quot;title&amp;quot;:&amp;quot;矩形&amp;quot;,&amp;quot;category&amp;quot;:&amp;quot;basic&amp;quot;,&amp;quot;group&amp;quot;:&amp;quot;&amp;quot;,&amp;quot;groupName&amp;quot;:null,&amp;quot;locked&amp;quot;:false,&amp;quot;link&amp;quot;:&amp;quot;&amp;quot;,&amp;quot;children&amp;quot;:[],&amp;quot;parent&amp;quot;:&amp;quot;&amp;quot;,&amp;quot;resizeDir&amp;quot;:[&amp;quot;tl&amp;quot;,&amp;quot;tr&amp;quot;,&amp;quot;br&amp;quot;,&amp;quot;bl&amp;quot;,&amp;quot;l&amp;quot;,&amp;quot;t&amp;quot;,&amp;quot;r&amp;quot;,&amp;quot;b&amp;quot;],&amp;quot;attribute&amp;quot;:{&amp;quot;container&amp;quot;:false,&amp;quot;visible&amp;quot;:true,&amp;quot;rotatable&amp;quot;:true,&amp;quot;linkable&amp;quot;:true,&amp;quot;collapsable&amp;quot;:false,&amp;quot;collapsed&amp;quot;:false,&amp;quot;fixedLink&amp;quot;:false,&amp;quot;markerOffset&amp;quot;:5},&amp;quot;dataAttributes&amp;quot;:[{&amp;quot;name&amp;quot;:&amp;quot;序号&amp;quot;,&amp;quot;type&amp;quot;:&amp;quot;number&amp;quot;,&amp;quot;value&amp;quot;:&amp;quot;&amp;quot;,&amp;quot;category&amp;quot;:&amp;quot;default&amp;quot;,&amp;quot;id&amp;quot;:&amp;quot;EPGCXlSpoi339708&amp;quot;},{&amp;quot;name&amp;quot;:&amp;quot;名称&amp;quot;,&amp;quot;type&amp;quot;:&amp;quot;string&amp;quot;,&amp;quot;value&amp;quot;:&amp;quot;&amp;quot;,&amp;quot;category&amp;quot;:&amp;quot;default&amp;quot;,&amp;quot;id&amp;quot;:&amp;quot;djXaqXjPmt395912&amp;quot;},{&amp;quot;name&amp;quot;:&amp;quot;所有者&amp;quot;,&amp;quot;type&amp;quot;:&amp;quot;string&amp;quot;,&amp;quot;value&amp;quot;:&amp;quot;&amp;quot;,&amp;quot;category&amp;quot;:&amp;quot;default&amp;quot;,&amp;quot;id&amp;quot;:&amp;quot;cikuguQSoQ210771&amp;quot;},{&amp;quot;name&amp;quot;:&amp;quot;连接&amp;quot;,&amp;quot;type&amp;quot;:&amp;quot;link&amp;quot;,&amp;quot;value&amp;quot;:&amp;quot;&amp;quot;,&amp;quot;category&amp;quot;:&amp;quot;default&amp;quot;,&amp;quot;id&amp;quot;:&amp;quot;zpxomSzidD473487&amp;quot;},{&amp;quot;name&amp;quot;:&amp;quot;便笺&amp;quot;,&amp;quot;type&amp;quot;:&amp;quot;string&amp;quot;,&amp;quot;value&amp;quot;:&amp;quot;&amp;quot;,&amp;quot;category&amp;quot;:&amp;quot;default&amp;quot;,&amp;quot;id&amp;quot;:&amp;quot;AGFCEPLofC952856&amp;quot;}],&amp;quot;props&amp;quot;:{&amp;quot;x&amp;quot;:884.75,&amp;quot;y&amp;quot;:9190,&amp;quot;w&amp;quot;:283.8571428571431,&amp;quot;h&amp;quot;:178,&amp;quot;zindex&amp;quot;:178,&amp;quot;angle&amp;quot;:0},&amp;quot;shapeStyle&amp;quot;:{&amp;quot;alpha&amp;quot;:1},&amp;quot;lineStyle&amp;quot;:{&amp;quot;lineWidth&amp;quot;:1.5},&amp;quot;fillStyle&amp;quot;:{},&amp;quot;theme&amp;quot;:{},&amp;quot;path&amp;quot;:[{&amp;quot;actions&amp;quot;:[{&amp;quot;action&amp;quot;:&amp;quot;move&amp;quot;,&amp;quot;x&amp;quot;:&amp;quot;0&amp;quot;,&amp;quot;y&amp;quot;:&amp;quot;0&amp;quot;},{&amp;quot;action&amp;quot;:&amp;quot;line&amp;quot;,&amp;quot;x&amp;quot;:&amp;quot;w&amp;quot;,&amp;quot;y&amp;quot;:&amp;quot;0&amp;quot;},{&amp;quot;action&amp;quot;:&amp;quot;line&amp;quot;,&amp;quot;x&amp;quot;:&amp;quot;w&amp;quot;,&amp;quot;y&amp;quot;:&amp;quot;h&amp;quot;},{&amp;quot;action&amp;quot;:&amp;quot;line&amp;quot;,&amp;quot;x&amp;quot;:&amp;quot;0&amp;quot;,&amp;quot;y&amp;quot;:&amp;quot;h&amp;quot;},{&amp;quot;action&amp;quot;:&amp;quot;close&amp;quot;}]}],&amp;quot;fontStyle&amp;quot;:{},&amp;quot;textBlock&amp;quot;:[{&amp;quot;position&amp;quot;:{&amp;quot;x&amp;quot;:10,&amp;quot;y&amp;quot;:0,&amp;quot;w&amp;quot;:&amp;quot;w-20&amp;quot;,&amp;quot;h&amp;quot;:&amp;quot;h&amp;quot;},&amp;quot;text&amp;quot;:&amp;quot;Web、PC、App&amp;quot;}],&amp;quot;anchors&amp;quot;:[{&amp;quot;x&amp;quot;:&amp;quot;w/2&amp;quot;,&amp;quot;y&amp;quot;:&amp;quot;0&amp;quot;},{&amp;quot;x&amp;quot;:&amp;quot;w/2&amp;quot;,&amp;quot;y&amp;quot;:&amp;quot;h&amp;quot;},{&amp;quot;x&amp;quot;:&amp;quot;0&amp;quot;,&amp;quot;y&amp;quot;:&amp;quot;h/2&amp;quot;},{&amp;quot;x&amp;quot;:&amp;quot;w&amp;quot;,&amp;quot;y&amp;quot;:&amp;quot;h/2&amp;quot;}]},{&amp;quot;id&amp;quot;:&amp;quot;OzYexNCBIX337287&amp;quot;,&amp;quot;name&amp;quot;:&amp;quot;rectangle&amp;quot;,&amp;quot;title&amp;quot;:&amp;quot;矩形&amp;quot;,&amp;quot;category&amp;quot;:&amp;quot;basic&amp;quot;,&amp;quot;group&amp;quot;:&amp;quot;&amp;quot;,&amp;quot;groupName&amp;quot;:null,&amp;quot;locked&amp;quot;:false,&amp;quot;link&amp;quot;:&amp;quot;&amp;quot;,&amp;quot;children&amp;quot;:[],&amp;quot;parent&amp;quot;:&amp;quot;&amp;quot;,&amp;quot;resizeDir&amp;quot;:[&amp;quot;tl&amp;quot;,&amp;quot;tr&amp;quot;,&amp;quot;br&amp;quot;,&amp;quot;bl&amp;quot;,&amp;quot;l&amp;quot;,&amp;quot;t&amp;quot;,&amp;quot;r&amp;quot;,&amp;quot;b&amp;quot;],&amp;quot;attribute&amp;quot;:{&amp;quot;container&amp;quot;:false,&amp;quot;visible&amp;quot;:true,&amp;quot;rotatable&amp;quot;:true,&amp;quot;linkable&amp;quot;:true,&amp;quot;collapsable&amp;quot;:false,&amp;quot;collapsed&amp;quot;:false,&amp;quot;fixedLink&amp;quot;:false,&amp;quot;markerOffset&amp;quot;:5},&amp;quot;dataAttributes&amp;quot;:[{&amp;quot;name&amp;quot;:&amp;quot;序号&amp;quot;,&amp;quot;type&amp;quot;:&amp;quot;number&amp;quot;,&amp;quot;value&amp;quot;:&amp;quot;&amp;quot;,&amp;quot;category&amp;quot;:&amp;quot;default&amp;quot;,&amp;quot;id&amp;quot;:&amp;quot;EHDjAEBYwi198391&amp;quot;},{&amp;quot;name&amp;quot;:&amp;quot;名称&amp;quot;,&amp;quot;type&amp;quot;:&amp;quot;string&amp;quot;,&amp;quot;value&amp;quot;:&amp;quot;&amp;quot;,&amp;quot;category&amp;quot;:&amp;quot;default&amp;quot;,&amp;quot;id&amp;quot;:&amp;quot;qSgFDOmhZI933247&amp;quot;},{&amp;quot;name&amp;quot;:&amp;quot;所有者&amp;quot;,&amp;quot;type&amp;quot;:&amp;quot;string&amp;quot;,&amp;quot;value&amp;quot;:&amp;quot;&amp;quot;,&amp;quot;category&amp;quot;:&amp;quot;default&amp;quot;,&amp;quot;id&amp;quot;:&amp;quot;CkMgmXTyTN425907&amp;quot;},{&amp;quot;name&amp;quot;:&amp;quot;连接&amp;quot;,&amp;quot;type&amp;quot;:&amp;quot;link&amp;quot;,&amp;quot;value&amp;quot;:&amp;quot;&amp;quot;,&amp;quot;category&amp;quot;:&amp;quot;default&amp;quot;,&amp;quot;id&amp;quot;:&amp;quot;kdiSlNKtgx668797&amp;quot;},{&amp;quot;name&amp;quot;:&amp;quot;便笺&amp;quot;,&amp;quot;type&amp;quot;:&amp;quot;string&amp;quot;,&amp;quot;value&amp;quot;:&amp;quot;&amp;quot;,&amp;quot;category&amp;quot;:&amp;quot;default&amp;quot;,&amp;quot;id&amp;quot;:&amp;quot;MonrYndomr605545&amp;quot;}],&amp;quot;props&amp;quot;:{&amp;quot;x&amp;quot;:95,&amp;quot;y&amp;quot;:9168,&amp;quot;w&amp;quot;:664,&amp;quot;h&amp;quot;:213,&amp;quot;zindex&amp;quot;:182,&amp;quot;angle&amp;quot;:0},&amp;quot;shapeStyle&amp;quot;:{&amp;quot;alpha&amp;quot;:1},&amp;quot;lineStyle&amp;quot;:{&amp;quot;lineWidth&amp;quot;:1.5},&amp;quot;fillStyle&amp;quot;:{},&amp;quot;theme&amp;quot;:{},&amp;quot;path&amp;quot;:[{&amp;quot;actions&amp;quot;:[{&amp;quot;action&amp;quot;:&amp;quot;move&amp;quot;,&amp;quot;x&amp;quot;:&amp;quot;0&amp;quot;,&amp;quot;y&amp;quot;:&amp;quot;0&amp;quot;},{&amp;quot;action&amp;quot;:&amp;quot;line&amp;quot;,&amp;quot;x&amp;quot;:&amp;quot;w&amp;quot;,&amp;quot;y&amp;quot;:&amp;quot;0&amp;quot;},{&amp;quot;action&amp;quot;:&amp;quot;line&amp;quot;,&amp;quot;x&amp;quot;:&amp;quot;w&amp;quot;,&amp;quot;y&amp;quot;:&amp;quot;h&amp;quot;},{&amp;quot;action&amp;quot;:&amp;quot;line&amp;quot;,&amp;quot;x&amp;quot;:&amp;quot;0&amp;quot;,&amp;quot;y&amp;quot;:&amp;quot;h&amp;quot;},{&amp;quot;action&amp;quot;:&amp;quot;close&amp;quot;}]}],&amp;quot;fontStyle&amp;quot;:{},&amp;quot;textBlock&amp;quot;:[{&amp;quot;position&amp;quot;:{&amp;quot;x&amp;quot;:10,&amp;quot;y&amp;quot;:0,&amp;quot;w&amp;quot;:&amp;quot;w-20&amp;quot;,&amp;quot;h&amp;quot;:&amp;quot;h&amp;quot;},&amp;quot;text&amp;quot;:&amp;quot;&amp;nbsp;&lt;div&gt;&lt;br&gt;&lt;/div&gt;&amp;quot;}],&amp;quot;anchors&amp;quot;:[{&amp;quot;x&amp;quot;:&amp;quot;w/2&amp;quot;,&amp;quot;y&amp;quot;:&amp;quot;0&amp;quot;},{&amp;quot;x&amp;quot;:&amp;quot;w/2&amp;quot;,&amp;quot;y&amp;quot;:&amp;quot;h&amp;quot;},{&amp;quot;x&amp;quot;:&amp;quot;0&amp;quot;,&amp;quot;y&amp;quot;:&amp;quot;h/2&amp;quot;},{&amp;quot;x&amp;quot;:&amp;quot;w&amp;quot;,&amp;quot;y&amp;quot;:&amp;quot;h/2&amp;quot;}],&amp;quot;container&amp;quot;:&amp;quot;BHakKmhXrR914055&amp;quot;},{&amp;quot;id&amp;quot;:&amp;quot;OrhCVcUBjt654942&amp;quot;,&amp;quot;name&amp;quot;:&amp;quot;rectangle&amp;quot;,&amp;quot;title&amp;quot;:&amp;quot;矩形&amp;quot;,&amp;quot;category&amp;quot;:&amp;quot;basic&amp;quot;,&amp;quot;group&amp;quot;:&amp;quot;&amp;quot;,&amp;quot;groupName&amp;quot;:null,&amp;quot;locked&amp;quot;:false,&amp;quot;link&amp;quot;:&amp;quot;&amp;quot;,&amp;quot;children&amp;quot;:[],&amp;quot;parent&amp;quot;:&amp;quot;&amp;quot;,&amp;quot;resizeDir&amp;quot;:[&amp;quot;tl&amp;quot;,&amp;quot;tr&amp;quot;,&amp;quot;br&amp;quot;,&amp;quot;bl&amp;quot;,&amp;quot;l&amp;quot;,&amp;quot;t&amp;quot;,&amp;quot;r&amp;quot;,&amp;quot;b&amp;quot;],&amp;quot;attribute&amp;quot;:{&amp;quot;container&amp;quot;:false,&amp;quot;visible&amp;quot;:true,&amp;quot;rotatable&amp;quot;:true,&amp;quot;linkable&amp;quot;:true,&amp;quot;collapsable&amp;quot;:false,&amp;quot;collapsed&amp;quot;:false,&amp;quot;fixedLink&amp;quot;:false,&amp;quot;markerOffset&amp;quot;:5},&amp;quot;dataAttributes&amp;quot;:[{&amp;quot;name&amp;quot;:&amp;quot;序号&amp;quot;,&amp;quot;type&amp;quot;:&amp;quot;number&amp;quot;,&amp;quot;value&amp;quot;:&amp;quot;&amp;quot;,&amp;quot;category&amp;quot;:&amp;quot;default&amp;quot;,&amp;quot;id&amp;quot;:&amp;quot;TsZccCdqLP116714&amp;quot;},{&amp;quot;name&amp;quot;:&amp;quot;名称&amp;quot;,&amp;quot;type&amp;quot;:&amp;quot;string&amp;quot;,&amp;quot;value&amp;quot;:&amp;quot;&amp;quot;,&amp;quot;category&amp;quot;:&amp;quot;default&amp;quot;,&amp;quot;id&amp;quot;:&amp;quot;LKAEYNIsDd582560&amp;quot;},{&amp;quot;name&amp;quot;:&amp;quot;所有者&amp;quot;,&amp;quot;type&amp;quot;:&amp;quot;string&amp;quot;,&amp;quot;value&amp;quot;:&amp;quot;&amp;quot;,&amp;quot;category&amp;quot;:&amp;quot;default&amp;quot;,&amp;quot;id&amp;quot;:&amp;quot;cHQWjVUBXw423099&amp;quot;},{&amp;quot;name&amp;quot;:&amp;quot;连接&amp;quot;,&amp;quot;type&amp;quot;:&amp;quot;link&amp;quot;,&amp;quot;value&amp;quot;:&amp;quot;&amp;quot;,&amp;quot;category&amp;quot;:&amp;quot;default&amp;quot;,&amp;quot;id&amp;quot;:&amp;quot;tovadwHrrt813874&amp;quot;},{&amp;quot;name&amp;quot;:&amp;quot;便笺&amp;quot;,&amp;quot;type&amp;quot;:&amp;quot;string&amp;quot;,&amp;quot;value&amp;quot;:&amp;quot;&amp;quot;,&amp;quot;category&amp;quot;:&amp;quot;default&amp;quot;,&amp;quot;id&amp;quot;:&amp;quot;VpwJXYGZZL569842&amp;quot;}],&amp;quot;props&amp;quot;:{&amp;quot;x&amp;quot;:130.3,&amp;quot;y&amp;quot;:9243.5,&amp;quot;w&amp;quot;:205.4,&amp;quot;h&amp;quot;:71,&amp;quot;zindex&amp;quot;:183,&amp;quot;angle&amp;quot;:0},&amp;quot;shapeStyle&amp;quot;:{&amp;quot;alpha&amp;quot;:1},&amp;quot;lineStyle&amp;quot;:{&amp;quot;lineWidth&amp;quot;:1.5},&amp;quot;fillStyle&amp;quot;:{},&amp;quot;theme&amp;quot;:{},&amp;quot;path&amp;quot;:[{&amp;quot;actions&amp;quot;:[{&amp;quot;action&amp;quot;:&amp;quot;move&amp;quot;,&amp;quot;x&amp;quot;:&amp;quot;0&amp;quot;,&amp;quot;y&amp;quot;:&amp;quot;0&amp;quot;},{&amp;quot;action&amp;quot;:&amp;quot;line&amp;quot;,&amp;quot;x&amp;quot;:&amp;quot;w&amp;quot;,&amp;quot;y&amp;quot;:&amp;quot;0&amp;quot;},{&amp;quot;action&amp;quot;:&amp;quot;line&amp;quot;,&amp;quot;x&amp;quot;:&amp;quot;w&amp;quot;,&amp;quot;y&amp;quot;:&amp;quot;h&amp;quot;},{&amp;quot;action&amp;quot;:&amp;quot;line&amp;quot;,&amp;quot;x&amp;quot;:&amp;quot;0&amp;quot;,&amp;quot;y&amp;quot;:&amp;quot;h&amp;quot;},{&amp;quot;action&amp;quot;:&amp;quot;close&amp;quot;}]}],&amp;quot;fontStyle&amp;quot;:{},&amp;quot;textBlock&amp;quot;:[{&amp;quot;position&amp;quot;:{&amp;quot;x&amp;quot;:10,&amp;quot;y&amp;quot;:0,&amp;quot;w&amp;quot;:&amp;quot;w-20&amp;quot;,&amp;quot;h&amp;quot;:&amp;quot;h&amp;quot;},&amp;quot;text&amp;quot;:&amp;quot;TaskController&amp;quot;}],&amp;quot;anchors&amp;quot;:[{&amp;quot;x&amp;quot;:&amp;quot;w/2&amp;quot;,&amp;quot;y&amp;quot;:&amp;quot;0&amp;quot;},{&amp;quot;x&amp;quot;:&amp;quot;w/2&amp;quot;,&amp;quot;y&amp;quot;:&amp;quot;h&amp;quot;},{&amp;quot;x&amp;quot;:&amp;quot;0&amp;quot;,&amp;quot;y&amp;quot;:&amp;quot;h/2&amp;quot;},{&amp;quot;x&amp;quot;:&amp;quot;w&amp;quot;,&amp;quot;y&amp;quot;:&amp;quot;h/2&amp;quot;}],&amp;quot;container&amp;quot;:&amp;quot;BHakKmhXrR914055&amp;quot;},{&amp;quot;id&amp;quot;:&amp;quot;cXbIFGCgNT962692&amp;quot;,&amp;quot;name&amp;quot;:&amp;quot;text&amp;quot;,&amp;quot;title&amp;quot;:&amp;quot;文本&amp;quot;,&amp;quot;category&amp;quot;:&amp;quot;basic&amp;quot;,&amp;quot;group&amp;quot;:&amp;quot;&amp;quot;,&amp;quot;groupName&amp;quot;:null,&amp;quot;locked&amp;quot;:false,&amp;quot;link&amp;quot;:&amp;quot;&amp;quot;,&amp;quot;children&amp;quot;:[],&amp;quot;parent&amp;quot;:&amp;quot;&amp;quot;,&amp;quot;resizeDir&amp;quot;:[&amp;quot;tl&amp;quot;,&amp;quot;tr&amp;quot;,&amp;quot;br&amp;quot;,&amp;quot;bl&amp;quot;,&amp;quot;l&amp;quot;,&amp;quot;t&amp;quot;,&amp;quot;r&amp;quot;,&amp;quot;b&amp;quot;],&amp;quot;attribute&amp;quot;:{&amp;quot;container&amp;quot;:false,&amp;quot;visible&amp;quot;:true,&amp;quot;rotatable&amp;quot;:true,&amp;quot;linkable&amp;quot;:true,&amp;quot;collapsable&amp;quot;:false,&amp;quot;collapsed&amp;quot;:false,&amp;quot;fixedLink&amp;quot;:false,&amp;quot;markerOffset&amp;quot;:5},&amp;quot;dataAttributes&amp;quot;:[{&amp;quot;name&amp;quot;:&amp;quot;序号&amp;quot;,&amp;quot;type&amp;quot;:&amp;quot;number&amp;quot;,&amp;quot;value&amp;quot;:&amp;quot;&amp;quot;,&amp;quot;category&amp;quot;:&amp;quot;default&amp;quot;,&amp;quot;id&amp;quot;:&amp;quot;AFKNPikGXI690155&amp;quot;},{&amp;quot;name&amp;quot;:&amp;quot;名称&amp;quot;,&amp;quot;type&amp;quot;:&amp;quot;string&amp;quot;,&amp;quot;value&amp;quot;:&amp;quot;&amp;quot;,&amp;quot;category&amp;quot;:&amp;quot;default&amp;quot;,&amp;quot;id&amp;quot;:&amp;quot;UQvmzjigLW554138&amp;quot;},{&amp;quot;name&amp;quot;:&amp;quot;所有者&amp;quot;,&amp;quot;type&amp;quot;:&amp;quot;string&amp;quot;,&amp;quot;value&amp;quot;:&amp;quot;&amp;quot;,&amp;quot;category&amp;quot;:&amp;quot;default&amp;quot;,&amp;quot;id&amp;quot;:&amp;quot;qVhjaDTomn752725&amp;quot;},{&amp;quot;name&amp;quot;:&amp;quot;连接&amp;quot;,&amp;quot;type&amp;quot;:&amp;quot;link&amp;quot;,&amp;quot;value&amp;quot;:&amp;quot;&amp;quot;,&amp;quot;category&amp;quot;:&amp;quot;default&amp;quot;,&amp;quot;id&amp;quot;:&amp;quot;dFzVApxEab493408&amp;quot;},{&amp;quot;name&amp;quot;:&amp;quot;便笺&amp;quot;,&amp;quot;type&amp;quot;:&amp;quot;string&amp;quot;,&amp;quot;value&amp;quot;:&amp;quot;&amp;quot;,&amp;quot;category&amp;quot;:&amp;quot;default&amp;quot;,&amp;quot;id&amp;quot;:&amp;quot;jEEVPaeuCC785667&amp;quot;}],&amp;quot;props&amp;quot;:{&amp;quot;x&amp;quot;:279,&amp;quot;y&amp;quot;:9177,&amp;quot;w&amp;quot;:296,&amp;quot;h&amp;quot;:43,&amp;quot;zindex&amp;quot;:184,&amp;quot;angle&amp;quot;:0},&amp;quot;shapeStyle&amp;quot;:{&amp;quot;alpha&amp;quot;:1},&amp;quot;lineStyle&amp;quot;:{&amp;quot;lineWidth&amp;quot;:1.5},&amp;quot;fillStyle&amp;quot;:{},&amp;quot;theme&amp;quot;:{},&amp;quot;path&amp;quot;:[{&amp;quot;lineStyle&amp;quot;:{&amp;quot;lineWidth&amp;quot;:0},&amp;quot;fillStyle&amp;quot;:{&amp;quot;type&amp;quot;:&amp;quot;none&amp;quot;},&amp;quot;actions&amp;quot;:[{&amp;quot;action&amp;quot;:&amp;quot;move&amp;quot;,&amp;quot;x&amp;quot;:&amp;quot;0&amp;quot;,&amp;quot;y&amp;quot;:&amp;quot;0&amp;quot;},{&amp;quot;action&amp;quot;:&amp;quot;line&amp;quot;,&amp;quot;x&amp;quot;:&amp;quot;w&amp;quot;,&amp;quot;y&amp;quot;:&amp;quot;0&amp;quot;},{&amp;quot;action&amp;quot;:&amp;quot;line&amp;quot;,&amp;quot;x&amp;quot;:&amp;quot;w&amp;quot;,&amp;quot;y&amp;quot;:&amp;quot;h&amp;quot;},{&amp;quot;action&amp;quot;:&amp;quot;line&amp;quot;,&amp;quot;x&amp;quot;:&amp;quot;0&amp;quot;,&amp;quot;y&amp;quot;:&amp;quot;h&amp;quot;},{&amp;quot;action&amp;quot;:&amp;quot;close&amp;quot;}]}],&amp;quot;fontStyle&amp;quot;:{},&amp;quot;textBlock&amp;quot;:[{&amp;quot;position&amp;quot;:{&amp;quot;x&amp;quot;:0,&amp;quot;y&amp;quot;:0,&amp;quot;w&amp;quot;:&amp;quot;w&amp;quot;,&amp;quot;h&amp;quot;:&amp;quot;h&amp;quot;},&amp;quot;text&amp;quot;:&amp;quot;MainLogicController&amp;quot;}],&amp;quot;anchors&amp;quot;:[{&amp;quot;x&amp;quot;:&amp;quot;w/2&amp;quot;,&amp;quot;y&amp;quot;:&amp;quot;0&amp;quot;},{&amp;quot;x&amp;quot;:&amp;quot;w/2&amp;quot;,&amp;quot;y&amp;quot;:&amp;quot;h&amp;quot;},{&amp;quot;x&amp;quot;:&amp;quot;0&amp;quot;,&amp;quot;y&amp;quot;:&amp;quot;h/2&amp;quot;},{&amp;quot;x&amp;quot;:&amp;quot;w&amp;quot;,&amp;quot;y&amp;quot;:&amp;quot;h/2&amp;quot;}],&amp;quot;container&amp;quot;:&amp;quot;BHakKmhXrR914055&amp;quot;},{&amp;quot;id&amp;quot;:&amp;quot;EXwNpQFNYt161613&amp;quot;,&amp;quot;name&amp;quot;:&amp;quot;rectangle&amp;quot;,&amp;quot;title&amp;quot;:&amp;quot;矩形&amp;quot;,&amp;quot;category&amp;quot;:&amp;quot;basic&amp;quot;,&amp;quot;group&amp;quot;:&amp;quot;&amp;quot;,&amp;quot;groupName&amp;quot;:null,&amp;quot;locked&amp;quot;:false,&amp;quot;link&amp;quot;:&amp;quot;&amp;quot;,&amp;quot;children&amp;quot;:[],&amp;quot;parent&amp;quot;:&amp;quot;&amp;quot;,&amp;quot;resizeDir&amp;quot;:[&amp;quot;tl&amp;quot;,&amp;quot;tr&amp;quot;,&amp;quot;br&amp;quot;,&amp;quot;bl&amp;quot;,&amp;quot;l&amp;quot;,&amp;quot;t&amp;quot;,&amp;quot;r&amp;quot;,&amp;quot;b&amp;quot;],&amp;quot;attribute&amp;quot;:{&amp;quot;container&amp;quot;:false,&amp;quot;visible&amp;quot;:true,&amp;quot;rotatable&amp;quot;:true,&amp;quot;linkable&amp;quot;:true,&amp;quot;collapsable&amp;quot;:false,&amp;quot;collapsed&amp;quot;:false,&amp;quot;fixedLink&amp;quot;:false,&amp;quot;markerOffset&amp;quot;:5},&amp;quot;dataAttributes&amp;quot;:[{&amp;quot;name&amp;quot;:&amp;quot;序号&amp;quot;,&amp;quot;type&amp;quot;:&amp;quot;number&amp;quot;,&amp;quot;value&amp;quot;:&amp;quot;&amp;quot;,&amp;quot;category&amp;quot;:&amp;quot;default&amp;quot;,&amp;quot;id&amp;quot;:&amp;quot;MJCiIaesCx526899&amp;quot;},{&amp;quot;name&amp;quot;:&amp;quot;名称&amp;quot;,&amp;quot;type&amp;quot;:&amp;quot;string&amp;quot;,&amp;quot;value&amp;quot;:&amp;quot;&amp;quot;,&amp;quot;category&amp;quot;:&amp;quot;default&amp;quot;,&amp;quot;id&amp;quot;:&amp;quot;DgbPUfzXZU304907&amp;quot;},{&amp;quot;name&amp;quot;:&amp;quot;所有者&amp;quot;,&amp;quot;type&amp;quot;:&amp;quot;string&amp;quot;,&amp;quot;value&amp;quot;:&amp;quot;&amp;quot;,&amp;quot;category&amp;quot;:&amp;quot;default&amp;quot;,&amp;quot;id&amp;quot;:&amp;quot;pbfgGIfgEL502560&amp;quot;},{&amp;quot;name&amp;quot;:&amp;quot;连接&amp;quot;,&amp;quot;type&amp;quot;:&amp;quot;link&amp;quot;,&amp;quot;value&amp;quot;:&amp;quot;&amp;quot;,&amp;quot;category&amp;quot;:&amp;quot;default&amp;quot;,&amp;quot;id&amp;quot;:&amp;quot;bvqbGaDgIa734916&amp;quot;},{&amp;quot;name&amp;quot;:&amp;quot;便笺&amp;quot;,&amp;quot;type&amp;quot;:&amp;quot;string&amp;quot;,&amp;quot;value&amp;quot;:&amp;quot;&amp;quot;,&amp;quot;category&amp;quot;:&amp;quot;default&amp;quot;,&amp;quot;id&amp;quot;:&amp;quot;xQQgAonffM306243&amp;quot;}],&amp;quot;props&amp;quot;:{&amp;quot;x&amp;quot;:357,&amp;quot;y&amp;quot;:9243.5,&amp;quot;w&amp;quot;:205.4,&amp;quot;h&amp;quot;:71,&amp;quot;zindex&amp;quot;:185,&amp;quot;angle&amp;quot;:0},&amp;quot;shapeStyle&amp;quot;:{&amp;quot;alpha&amp;quot;:1},&amp;quot;lineStyle&amp;quot;:{&amp;quot;lineWidth&amp;quot;:1.5},&amp;quot;fillStyle&amp;quot;:{},&amp;quot;theme&amp;quot;:{},&amp;quot;path&amp;quot;:[{&amp;quot;actions&amp;quot;:[{&amp;quot;action&amp;quot;:&amp;quot;move&amp;quot;,&amp;quot;x&amp;quot;:&amp;quot;0&amp;quot;,&amp;quot;y&amp;quot;:&amp;quot;0&amp;quot;},{&amp;quot;action&amp;quot;:&amp;quot;line&amp;quot;,&amp;quot;x&amp;quot;:&amp;quot;w&amp;quot;,&amp;quot;y&amp;quot;:&amp;quot;0&amp;quot;},{&amp;quot;action&amp;quot;:&amp;quot;line&amp;quot;,&amp;quot;x&amp;quot;:&amp;quot;w&amp;quot;,&amp;quot;y&amp;quot;:&amp;quot;h&amp;quot;},{&amp;quot;action&amp;quot;:&amp;quot;line&amp;quot;,&amp;quot;x&amp;quot;:&amp;quot;0&amp;quot;,&amp;quot;y&amp;quot;:&amp;quot;h&amp;quot;},{&amp;quot;action&amp;quot;:&amp;quot;close&amp;quot;}]}],&amp;quot;fontStyle&amp;quot;:{},&amp;quot;textBlock&amp;quot;:[{&amp;quot;position&amp;quot;:{&amp;quot;x&amp;quot;:10,&amp;quot;y&amp;quot;:0,&amp;quot;w&amp;quot;:&amp;quot;w-20&amp;quot;,&amp;quot;h&amp;quot;:&amp;quot;h&amp;quot;},&amp;quot;text&amp;quot;:&amp;quot;LogController&amp;quot;}],&amp;quot;anchors&amp;quot;:[{&amp;quot;x&amp;quot;:&amp;quot;w/2&amp;quot;,&amp;quot;y&amp;quot;:&amp;quot;0&amp;quot;},{&amp;quot;x&amp;quot;:&amp;quot;w/2&amp;quot;,&amp;quot;y&amp;quot;:&amp;quot;h&amp;quot;},{&amp;quot;x&amp;quot;:&amp;quot;0&amp;quot;,&amp;quot;y&amp;quot;:&amp;quot;h/2&amp;quot;},{&amp;quot;x&amp;quot;:&amp;quot;w&amp;quot;,&amp;quot;y&amp;quot;:&amp;quot;h/2&amp;quot;}],&amp;quot;container&amp;quot;:&amp;quot;BHakKmhXrR914055&amp;quot;},{&amp;quot;id&amp;quot;:&amp;quot;dPMkLbmxZq933058&amp;quot;,&amp;quot;name&amp;quot;:&amp;quot;rectangle&amp;quot;,&amp;quot;title&amp;quot;:&amp;quot;矩形&amp;quot;,&amp;quot;category&amp;quot;:&amp;quot;basic&amp;quot;,&amp;quot;group&amp;quot;:&amp;quot;&amp;quot;,&amp;quot;groupName&amp;quot;:null,&amp;quot;locked&amp;quot;:false,&amp;quot;link&amp;quot;:&amp;quot;&amp;quot;,&amp;quot;children&amp;quot;:[],&amp;quot;parent&amp;quot;:&amp;quot;&amp;quot;,&amp;quot;resizeDir&amp;quot;:[&amp;quot;tl&amp;quot;,&amp;quot;tr&amp;quot;,&amp;quot;br&amp;quot;,&amp;quot;bl&amp;quot;,&amp;quot;l&amp;quot;,&amp;quot;t&amp;quot;,&amp;quot;r&amp;quot;,&amp;quot;b&amp;quot;],&amp;quot;attribute&amp;quot;:{&amp;quot;container&amp;quot;:false,&amp;quot;visible&amp;quot;:true,&amp;quot;rotatable&amp;quot;:true,&amp;quot;linkable&amp;quot;:true,&amp;quot;collapsable&amp;quot;:false,&amp;quot;collapsed&amp;quot;:false,&amp;quot;fixedLink&amp;quot;:false,&amp;quot;markerOffset&amp;quot;:5},&amp;quot;dataAttributes&amp;quot;:[{&amp;quot;name&amp;quot;:&amp;quot;序号&amp;quot;,&amp;quot;type&amp;quot;:&amp;quot;number&amp;quot;,&amp;quot;value&amp;quot;:&amp;quot;&amp;quot;,&amp;quot;category&amp;quot;:&amp;quot;default&amp;quot;,&amp;quot;id&amp;quot;:&amp;quot;MlzWQOBQuL828982&amp;quot;},{&amp;quot;name&amp;quot;:&amp;quot;名称&amp;quot;,&amp;quot;type&amp;quot;:&amp;quot;string&amp;quot;,&amp;quot;value&amp;quot;:&amp;quot;&amp;quot;,&amp;quot;category&amp;quot;:&amp;quot;default&amp;quot;,&amp;quot;id&amp;quot;:&amp;quot;WFfTFOGDzF788224&amp;quot;},{&amp;quot;name&amp;quot;:&amp;quot;所有者&amp;quot;,&amp;quot;type&amp;quot;:&amp;quot;string&amp;quot;,&amp;quot;value&amp;quot;:&amp;quot;&amp;quot;,&amp;quot;category&amp;quot;:&amp;quot;default&amp;quot;,&amp;quot;id&amp;quot;:&amp;quot;lLaKDtkkKX015450&amp;quot;},{&amp;quot;name&amp;quot;:&amp;quot;连接&amp;quot;,&amp;quot;type&amp;quot;:&amp;quot;link&amp;quot;,&amp;quot;value&amp;quot;:&amp;quot;&amp;quot;,&amp;quot;category&amp;quot;:&amp;quot;default&amp;quot;,&amp;quot;id&amp;quot;:&amp;quot;fADDOCPhcB581364&amp;quot;},{&amp;quot;name&amp;quot;:&amp;quot;便笺&amp;quot;,&amp;quot;type&amp;quot;:&amp;quot;string&amp;quot;,&amp;quot;value&amp;quot;:&amp;quot;&amp;quot;,&amp;quot;category&amp;quot;:&amp;quot;default&amp;quot;,&amp;quot;id&amp;quot;:&amp;quot;geXfmHaEzj642316&amp;quot;}],&amp;quot;props&amp;quot;:{&amp;quot;x&amp;quot;:590.1746031746031,&amp;quot;y&amp;quot;:9243.5,&amp;quot;w&amp;quot;:136.8253968253968,&amp;quot;h&amp;quot;:71,&amp;quot;zindex&amp;quot;:186,&amp;quot;angle&amp;quot;:0},&amp;quot;shapeStyle&amp;quot;:{&amp;quot;alpha&amp;quot;:1},&amp;quot;lineStyle&amp;quot;:{&amp;quot;lineWidth&amp;quot;:1.5},&amp;quot;fillStyle&amp;quot;:{},&amp;quot;theme&amp;quot;:{},&amp;quot;path&amp;quot;:[{&amp;quot;actions&amp;quot;:[{&amp;quot;action&amp;quot;:&amp;quot;move&amp;quot;,&amp;quot;x&amp;quot;:&amp;quot;0&amp;quot;,&amp;quot;y&amp;quot;:&amp;quot;0&amp;quot;},{&amp;quot;action&amp;quot;:&amp;quot;line&amp;quot;,&amp;quot;x&amp;quot;:&amp;quot;w&amp;quot;,&amp;quot;y&amp;quot;:&amp;quot;0&amp;quot;},{&amp;quot;action&amp;quot;:&amp;quot;line&amp;quot;,&amp;quot;x&amp;quot;:&amp;quot;w&amp;quot;,&amp;quot;y&amp;quot;:&amp;quot;h&amp;quot;},{&amp;quot;action&amp;quot;:&amp;quot;line&amp;quot;,&amp;quot;x&amp;quot;:&amp;quot;0&amp;quot;,&amp;quot;y&amp;quot;:&amp;quot;h&amp;quot;},{&amp;quot;action&amp;quot;:&amp;quot;close&amp;quot;}]}],&amp;quot;fontStyle&amp;quot;:{},&amp;quot;textBlock&amp;quot;:[{&amp;quot;position&amp;quot;:{&amp;quot;x&amp;quot;:10,&amp;quot;y&amp;quot;:0,&amp;quot;w&amp;quot;:&amp;quot;w-20&amp;quot;,&amp;quot;h&amp;quot;:&amp;quot;h&amp;quot;},&amp;quot;text&amp;quot;:&amp;quot;CloudServices&amp;quot;}],&amp;quot;anchors&amp;quot;:[{&amp;quot;x&amp;quot;:&amp;quot;w/2&amp;quot;,&amp;quot;y&amp;quot;:&amp;quot;0&amp;quot;},{&amp;quot;x&amp;quot;:&amp;quot;w/2&amp;quot;,&amp;quot;y&amp;quot;:&amp;quot;h&amp;quot;},{&amp;quot;x&amp;quot;:&amp;quot;0&amp;quot;,&amp;quot;y&amp;quot;:&amp;quot;h/2&amp;quot;},{&amp;quot;x&amp;quot;:&amp;quot;w&amp;quot;,&amp;quot;y&amp;quot;:&amp;quot;h/2&amp;quot;}],&amp;quot;container&amp;quot;:&amp;quot;BHakKmhXrR914055&amp;quot;},{&amp;quot;id&amp;quot;:&amp;quot;jthImqWYBY648977&amp;quot;,&amp;quot;name&amp;quot;:&amp;quot;rectangle&amp;quot;,&amp;quot;title&amp;quot;:&amp;quot;矩形&amp;quot;,&amp;quot;category&amp;quot;:&amp;quot;basic&amp;quot;,&amp;quot;group&amp;quot;:&amp;quot;&amp;quot;,&amp;quot;groupName&amp;quot;:null,&amp;quot;locked&amp;quot;:false,&amp;quot;link&amp;quot;:&amp;quot;&amp;quot;,&amp;quot;children&amp;quot;:[],&amp;quot;parent&amp;quot;:&amp;quot;&amp;quot;,&amp;quot;resizeDir&amp;quot;:[&amp;quot;tl&amp;quot;,&amp;quot;tr&amp;quot;,&amp;quot;br&amp;quot;,&amp;quot;bl&amp;quot;,&amp;quot;l&amp;quot;,&amp;quot;t&amp;quot;,&amp;quot;r&amp;quot;,&amp;quot;b&amp;quot;],&amp;quot;attribute&amp;quot;:{&amp;quot;container&amp;quot;:false,&amp;quot;visible&amp;quot;:true,&amp;quot;rotatable&amp;quot;:true,&amp;quot;linkable&amp;quot;:true,&amp;quot;collapsable&amp;quot;:false,&amp;quot;collapsed&amp;quot;:false,&amp;quot;fixedLink&amp;quot;:false,&amp;quot;markerOffset&amp;quot;:5},&amp;quot;dataAttributes&amp;quot;:[{&amp;quot;name&amp;quot;:&amp;quot;序号&amp;quot;,&amp;quot;type&amp;quot;:&amp;quot;number&amp;quot;,&amp;quot;value&amp;quot;:&amp;quot;&amp;quot;,&amp;quot;category&amp;quot;:&amp;quot;default&amp;quot;,&amp;quot;id&amp;quot;:&amp;quot;hrZSfGXlfR279739&amp;quot;},{&amp;quot;name&amp;quot;:&amp;quot;名称&amp;quot;,&amp;quot;type&amp;quot;:&amp;quot;string&amp;quot;,&amp;quot;value&amp;quot;:&amp;quot;&amp;quot;,&amp;quot;category&amp;quot;:&amp;quot;default&amp;quot;,&amp;quot;id&amp;quot;:&amp;quot;SxcUAwLIfd857179&amp;quot;},{&amp;quot;name&amp;quot;:&amp;quot;所有者&amp;quot;,&amp;quot;type&amp;quot;:&amp;quot;string&amp;quot;,&amp;quot;value&amp;quot;:&amp;quot;&amp;quot;,&amp;quot;category&amp;quot;:&amp;quot;default&amp;quot;,&amp;quot;id&amp;quot;:&amp;quot;OmwlhhTIDL258494&amp;quot;},{&amp;quot;name&amp;quot;:&amp;quot;连接&amp;quot;,&amp;quot;type&amp;quot;:&amp;quot;link&amp;quot;,&amp;quot;value&amp;quot;:&amp;quot;&amp;quot;,&amp;quot;category&amp;quot;:&amp;quot;default&amp;quot;,&amp;quot;id&amp;quot;:&amp;quot;zctsOowltQ008804&amp;quot;},{&amp;quot;name&amp;quot;:&amp;quot;便笺&amp;quot;,&amp;quot;type&amp;quot;:&amp;quot;string&amp;quot;,&amp;quot;value&amp;quot;:&amp;quot;&amp;quot;,&amp;quot;category&amp;quot;:&amp;quot;default&amp;quot;,&amp;quot;id&amp;quot;:&amp;quot;OkdTEFOkey798326&amp;quot;}],&amp;quot;props&amp;quot;:{&amp;quot;x&amp;quot;:95,&amp;quot;y&amp;quot;:9502.138888888889,&amp;quot;w&amp;quot;:96.5,&amp;quot;h&amp;quot;:54,&amp;quot;zindex&amp;quot;:187,&amp;quot;angle&amp;quot;:0},&amp;quot;shapeStyle&amp;quot;:{&amp;quot;alpha&amp;quot;:1},&amp;quot;lineStyle&amp;quot;:{&amp;quot;lineWidth&amp;quot;:1.5},&amp;quot;fillStyle&amp;quot;:{},&amp;quot;theme&amp;quot;:{},&amp;quot;path&amp;quot;:[{&amp;quot;actions&amp;quot;:[{&amp;quot;action&amp;quot;:&amp;quot;move&amp;quot;,&amp;quot;x&amp;quot;:&amp;quot;0&amp;quot;,&amp;quot;y&amp;quot;:&amp;quot;0&amp;quot;},{&amp;quot;action&amp;quot;:&amp;quot;line&amp;quot;,&amp;quot;x&amp;quot;:&amp;quot;w&amp;quot;,&amp;quot;y&amp;quot;:&amp;quot;0&amp;quot;},{&amp;quot;action&amp;quot;:&amp;quot;line&amp;quot;,&amp;quot;x&amp;quot;:&amp;quot;w&amp;quot;,&amp;quot;y&amp;quot;:&amp;quot;h&amp;quot;},{&amp;quot;action&amp;quot;:&amp;quot;line&amp;quot;,&amp;quot;x&amp;quot;:&amp;quot;0&amp;quot;,&amp;quot;y&amp;quot;:&amp;quot;h&amp;quot;},{&amp;quot;action&amp;quot;:&amp;quot;close&amp;quot;}]}],&amp;quot;fontStyle&amp;quot;:{},&amp;quot;textBlock&amp;quot;:[{&amp;quot;position&amp;quot;:{&amp;quot;x&amp;quot;:10,&amp;quot;y&amp;quot;:0,&amp;quot;w&amp;quot;:&amp;quot;w-20&amp;quot;,&amp;quot;h&amp;quot;:&amp;quot;h&amp;quot;},&amp;quot;text&amp;quot;:&amp;quot;Model&amp;quot;}],&amp;quot;anchors&amp;quot;:[{&amp;quot;x&amp;quot;:&amp;quot;w/2&amp;quot;,&amp;quot;y&amp;quot;:&amp;quot;0&amp;quot;},{&amp;quot;x&amp;quot;:&amp;quot;w/2&amp;quot;,&amp;quot;y&amp;quot;:&amp;quot;h&amp;quot;},{&amp;quot;x&amp;quot;:&amp;quot;0&amp;quot;,&amp;quot;y&amp;quot;:&amp;quot;h/2&amp;quot;},{&amp;quot;x&amp;quot;:&amp;quot;w&amp;quot;,&amp;quot;y&amp;quot;:&amp;quot;h/2&amp;quot;}],&amp;quot;container&amp;quot;:&amp;quot;BHakKmhXrR914055&amp;quot;},{&amp;quot;id&amp;quot;:&amp;quot;iGwEwmpomC523350&amp;quot;,&amp;quot;name&amp;quot;:&amp;quot;rectangle&amp;quot;,&amp;quot;title&amp;quot;:&amp;quot;矩形&amp;quot;,&amp;quot;category&amp;quot;:&amp;quot;basic&amp;quot;,&amp;quot;group&amp;quot;:&amp;quot;&amp;quot;,&amp;quot;groupName&amp;quot;:null,&amp;quot;locked&amp;quot;:false,&amp;quot;link&amp;quot;:&amp;quot;&amp;quot;,&amp;quot;children&amp;quot;:[],&amp;quot;parent&amp;quot;:&amp;quot;&amp;quot;,&amp;quot;resizeDir&amp;quot;:[&amp;quot;tl&amp;quot;,&amp;quot;tr&amp;quot;,&amp;quot;br&amp;quot;,&amp;quot;bl&amp;quot;,&amp;quot;l&amp;quot;,&amp;quot;t&amp;quot;,&amp;quot;r&amp;quot;,&amp;quot;b&amp;quot;],&amp;quot;attribute&amp;quot;:{&amp;quot;container&amp;quot;:false,&amp;quot;visible&amp;quot;:true,&amp;quot;rotatable&amp;quot;:true,&amp;quot;linkable&amp;quot;:true,&amp;quot;collapsable&amp;quot;:false,&amp;quot;collapsed&amp;quot;:false,&amp;quot;fixedLink&amp;quot;:false,&amp;quot;markerOffset&amp;quot;:5},&amp;quot;dataAttributes&amp;quot;:[{&amp;quot;name&amp;quot;:&amp;quot;序号&amp;quot;,&amp;quot;type&amp;quot;:&amp;quot;number&amp;quot;,&amp;quot;value&amp;quot;:&amp;quot;&amp;quot;,&amp;quot;category&amp;quot;:&amp;quot;default&amp;quot;,&amp;quot;id&amp;quot;:&amp;quot;yzWShzlyZP368590&amp;quot;},{&amp;quot;name&amp;quot;:&amp;quot;名称&amp;quot;,&amp;quot;type&amp;quot;:&amp;quot;string&amp;quot;,&amp;quot;value&amp;quot;:&amp;quot;&amp;quot;,&amp;quot;category&amp;quot;:&amp;quot;default&amp;quot;,&amp;quot;id&amp;quot;:&amp;quot;UEwLcaEwLx729956&amp;quot;},{&amp;quot;name&amp;quot;:&amp;quot;所有者&amp;quot;,&amp;quot;type&amp;quot;:&amp;quot;string&amp;quot;,&amp;quot;value&amp;quot;:&amp;quot;&amp;quot;,&amp;quot;category&amp;quot;:&amp;quot;default&amp;quot;,&amp;quot;id&amp;quot;:&amp;quot;BtyfKMKdfQ442808&amp;quot;},{&amp;quot;name&amp;quot;:&amp;quot;连接&amp;quot;,&amp;quot;type&amp;quot;:&amp;quot;link&amp;quot;,&amp;quot;value&amp;quot;:&amp;quot;&amp;quot;,&amp;quot;category&amp;quot;:&amp;quot;default&amp;quot;,&amp;quot;id&amp;quot;:&amp;quot;zkjrBMLvNK682988&amp;quot;},{&amp;quot;name&amp;quot;:&amp;quot;便笺&amp;quot;,&amp;quot;type&amp;quot;:&amp;quot;string&amp;quot;,&amp;quot;value&amp;quot;:&amp;quot;&amp;quot;,&amp;quot;category&amp;quot;:&amp;quot;default&amp;quot;,&amp;quot;id&amp;quot;:&amp;quot;moElJqJEuq218625&amp;quot;}],&amp;quot;props&amp;quot;:{&amp;quot;x&amp;quot;:233.5,&amp;quot;y&amp;quot;:9502.138888888889,&amp;quot;w&amp;quot;:99,&amp;quot;h&amp;quot;:54,&amp;quot;zindex&amp;quot;:188,&amp;quot;angle&amp;quot;:0},&amp;quot;shapeStyle&amp;quot;:{&amp;quot;alpha&amp;quot;:1},&amp;quot;lineStyle&amp;quot;:{&amp;quot;lineWidth&amp;quot;:1.5},&amp;quot;fillStyle&amp;quot;:{},&amp;quot;theme&amp;quot;:{},&amp;quot;path&amp;quot;:[{&amp;quot;actions&amp;quot;:[{&amp;quot;action&amp;quot;:&amp;quot;move&amp;quot;,&amp;quot;x&amp;quot;:&amp;quot;0&amp;quot;,&amp;quot;y&amp;quot;:&amp;quot;0&amp;quot;},{&amp;quot;action&amp;quot;:&amp;quot;line&amp;quot;,&amp;quot;x&amp;quot;:&amp;quot;w&amp;quot;,&amp;quot;y&amp;quot;:&amp;quot;0&amp;quot;},{&amp;quot;action&amp;quot;:&amp;quot;line&amp;quot;,&amp;quot;x&amp;quot;:&amp;quot;w&amp;quot;,&amp;quot;y&amp;quot;:&amp;quot;h&amp;quot;},{&amp;quot;action&amp;quot;:&amp;quot;line&amp;quot;,&amp;quot;x&amp;quot;:&amp;quot;0&amp;quot;,&amp;quot;y&amp;quot;:&amp;quot;h&amp;quot;},{&amp;quot;action&amp;quot;:&amp;quot;close&amp;quot;}]}],&amp;quot;fontStyle&amp;quot;:{},&amp;quot;textBlock&amp;quot;:[{&amp;quot;position&amp;quot;:{&amp;quot;x&amp;quot;:10,&amp;quot;y&amp;quot;:0,&amp;quot;w&amp;quot;:&amp;quot;w-20&amp;quot;,&amp;quot;h&amp;quot;:&amp;quot;h&amp;quot;},&amp;quot;text&amp;quot;:&amp;quot;ViewModel&amp;quot;}],&amp;quot;anchors&amp;quot;:[{&amp;quot;x&amp;quot;:&amp;quot;w/2&amp;quot;,&amp;quot;y&amp;quot;:&amp;quot;0&amp;quot;},{&amp;quot;x&amp;quot;:&amp;quot;w/2&amp;quot;,&amp;quot;y&amp;quot;:&amp;quot;h&amp;quot;},{&amp;quot;x&amp;quot;:&amp;quot;0&amp;quot;,&amp;quot;y&amp;quot;:&amp;quot;h/2&amp;quot;},{&amp;quot;x&amp;quot;:&amp;quot;w&amp;quot;,&amp;quot;y&amp;quot;:&amp;quot;h/2&amp;quot;}],&amp;quot;container&amp;quot;:&amp;quot;BHakKmhXrR914055&amp;quot;},{&amp;quot;id&amp;quot;:&amp;quot;ikrmeaaQFj885994&amp;quot;,&amp;quot;name&amp;quot;:&amp;quot;rectangle&amp;quot;,&amp;quot;title&amp;quot;:&amp;quot;矩形&amp;quot;,&amp;quot;category&amp;quot;:&amp;quot;basic&amp;quot;,&amp;quot;group&amp;quot;:&amp;quot;&amp;quot;,&amp;quot;groupName&amp;quot;:null,&amp;quot;locked&amp;quot;:false,&amp;quot;link&amp;quot;:&amp;quot;&amp;quot;,&amp;quot;children&amp;quot;:[],&amp;quot;parent&amp;quot;:&amp;quot;&amp;quot;,&amp;quot;resizeDir&amp;quot;:[&amp;quot;tl&amp;quot;,&amp;quot;tr&amp;quot;,&amp;quot;br&amp;quot;,&amp;quot;bl&amp;quot;,&amp;quot;l&amp;quot;,&amp;quot;t&amp;quot;,&amp;quot;r&amp;quot;,&amp;quot;b&amp;quot;],&amp;quot;attribute&amp;quot;:{&amp;quot;container&amp;quot;:false,&amp;quot;visible&amp;quot;:true,&amp;quot;rotatable&amp;quot;:true,&amp;quot;linkable&amp;quot;:true,&amp;quot;collapsable&amp;quot;:false,&amp;quot;collapsed&amp;quot;:false,&amp;quot;fixedLink&amp;quot;:false,&amp;quot;markerOffset&amp;quot;:5},&amp;quot;dataAttributes&amp;quot;:[{&amp;quot;name&amp;quot;:&amp;quot;序号&amp;quot;,&amp;quot;type&amp;quot;:&amp;quot;number&amp;quot;,&amp;quot;value&amp;quot;:&amp;quot;&amp;quot;,&amp;quot;category&amp;quot;:&amp;quot;default&amp;quot;,&amp;quot;id&amp;quot;:&amp;quot;rzrXRZBfYW812346&amp;quot;},{&amp;quot;name&amp;quot;:&amp;quot;名称&amp;quot;,&amp;quot;type&amp;quot;:&amp;quot;string&amp;quot;,&amp;quot;value&amp;quot;:&amp;quot;&amp;quot;,&amp;quot;category&amp;quot;:&amp;quot;default&amp;quot;,&amp;quot;id&amp;quot;:&amp;quot;lwXrIojMnO354248&amp;quot;},{&amp;quot;name&amp;quot;:&amp;quot;所有者&amp;quot;,&amp;quot;type&amp;quot;:&amp;quot;string&amp;quot;,&amp;quot;value&amp;quot;:&amp;quot;&amp;quot;,&amp;quot;category&amp;quot;:&amp;quot;default&amp;quot;,&amp;quot;id&amp;quot;:&amp;quot;dFyAWSQnGC580463&amp;quot;},{&amp;quot;name&amp;quot;:&amp;quot;连接&amp;quot;,&amp;quot;type&amp;quot;:&amp;quot;link&amp;quot;,&amp;quot;value&amp;quot;:&amp;quot;&amp;quot;,&amp;quot;category&amp;quot;:&amp;quot;default&amp;quot;,&amp;quot;id&amp;quot;:&amp;quot;QxTFtrJdSj108855&amp;quot;},{&amp;quot;name&amp;quot;:&amp;quot;便笺&amp;quot;,&amp;quot;type&amp;quot;:&amp;quot;string&amp;quot;,&amp;quot;value&amp;quot;:&amp;quot;&amp;quot;,&amp;quot;category&amp;quot;:&amp;quot;default&amp;quot;,&amp;quot;id&amp;quot;:&amp;quot;YTtHZEEAoL207077&amp;quot;}],&amp;quot;props&amp;quot;:{&amp;quot;x&amp;quot;:233.5,&amp;quot;y&amp;quot;:9422.138888888889,&amp;quot;w&amp;quot;:96.5,&amp;quot;h&amp;quot;:54,&amp;quot;zindex&amp;quot;:189,&amp;quot;angle&amp;quot;:0},&amp;quot;shapeStyle&amp;quot;:{&amp;quot;alpha&amp;quot;:1},&amp;quot;lineStyle&amp;quot;:{&amp;quot;lineWidth&amp;quot;:1.5},&amp;quot;fillStyle&amp;quot;:{},&amp;quot;theme&amp;quot;:{},&amp;quot;path&amp;quot;:[{&amp;quot;actions&amp;quot;:[{&amp;quot;action&amp;quot;:&amp;quot;move&amp;quot;,&amp;quot;x&amp;quot;:&amp;quot;0&amp;quot;,&amp;quot;y&amp;quot;:&amp;quot;0&amp;quot;},{&amp;quot;action&amp;quot;:&amp;quot;line&amp;quot;,&amp;quot;x&amp;quot;:&amp;quot;w&amp;quot;,&amp;quot;y&amp;quot;:&amp;quot;0&amp;quot;},{&amp;quot;action&amp;quot;:&amp;quot;line&amp;quot;,&amp;quot;x&amp;quot;:&amp;quot;w&amp;quot;,&amp;quot;y&amp;quot;:&amp;quot;h&amp;quot;},{&amp;quot;action&amp;quot;:&amp;quot;line&amp;quot;,&amp;quot;x&amp;quot;:&amp;quot;0&amp;quot;,&amp;quot;y&amp;quot;:&amp;quot;h&amp;quot;},{&amp;quot;action&amp;quot;:&amp;quot;close&amp;quot;}]}],&amp;quot;fontStyle&amp;quot;:{},&amp;quot;textBlock&amp;quot;:[{&amp;quot;position&amp;quot;:{&amp;quot;x&amp;quot;:10,&amp;quot;y&amp;quot;:0,&amp;quot;w&amp;quot;:&amp;quot;w-20&amp;quot;,&amp;quot;h&amp;quot;:&amp;quot;h&amp;quot;},&amp;quot;text&amp;quot;:&amp;quot;QCommon&amp;quot;}],&amp;quot;anchors&amp;quot;:[{&amp;quot;x&amp;quot;:&amp;quot;w/2&amp;quot;,&amp;quot;y&amp;quot;:&amp;quot;0&amp;quot;},{&amp;quot;x&amp;quot;:&amp;quot;w/2&amp;quot;,&amp;quot;y&amp;quot;:&amp;quot;h&amp;quot;},{&amp;quot;x&amp;quot;:&amp;quot;0&amp;quot;,&amp;quot;y&amp;quot;:&amp;quot;h/2&amp;quot;},{&amp;quot;x&amp;quot;:&amp;quot;w&amp;quot;,&amp;quot;y&amp;quot;:&amp;quot;h/2&amp;quot;}],&amp;quot;container&amp;quot;:&amp;quot;BHakKmhXrR914055&amp;quot;},{&amp;quot;id&amp;quot;:&amp;quot;QeUGRgDenF793462&amp;quot;,&amp;quot;name&amp;quot;:&amp;quot;rectangle&amp;quot;,&amp;quot;title&amp;quot;:&amp;quot;矩形&amp;quot;,&amp;quot;category&amp;quot;:&amp;quot;basic&amp;quot;,&amp;quot;group&amp;quot;:&amp;quot;&amp;quot;,&amp;quot;groupName&amp;quot;:null,&amp;quot;locked&amp;quot;:false,&amp;quot;link&amp;quot;:&amp;quot;&amp;quot;,&amp;quot;children&amp;quot;:[],&amp;quot;parent&amp;quot;:&amp;quot;&amp;quot;,&amp;quot;resizeDir&amp;quot;:[&amp;quot;tl&amp;quot;,&amp;quot;tr&amp;quot;,&amp;quot;br&amp;quot;,&amp;quot;bl&amp;quot;,&amp;quot;l&amp;quot;,&amp;quot;t&amp;quot;,&amp;quot;r&amp;quot;,&amp;quot;b&amp;quot;],&amp;quot;attribute&amp;quot;:{&amp;quot;container&amp;quot;:false,&amp;quot;visible&amp;quot;:true,&amp;quot;rotatable&amp;quot;:true,&amp;quot;linkable&amp;quot;:true,&amp;quot;collapsable&amp;quot;:false,&amp;quot;collapsed&amp;quot;:false,&amp;quot;fixedLink&amp;quot;:false,&amp;quot;markerOffset&amp;quot;:5},&amp;quot;dataAttributes&amp;quot;:[{&amp;quot;name&amp;quot;:&amp;quot;序号&amp;quot;,&amp;quot;type&amp;quot;:&amp;quot;number&amp;quot;,&amp;quot;value&amp;quot;:&amp;quot;&amp;quot;,&amp;quot;category&amp;quot;:&amp;quot;default&amp;quot;,&amp;quot;id&amp;quot;:&amp;quot;tZIREDIbFm229612&amp;quot;},{&amp;quot;name&amp;quot;:&amp;quot;名称&amp;quot;,&amp;quot;type&amp;quot;:&amp;quot;string&amp;quot;,&amp;quot;value&amp;quot;:&amp;quot;&amp;quot;,&amp;quot;category&amp;quot;:&amp;quot;default&amp;quot;,&amp;quot;id&amp;quot;:&amp;quot;wbcCjduscE421732&amp;quot;},{&amp;quot;name&amp;quot;:&amp;quot;所有者&amp;quot;,&amp;quot;type&amp;quot;:&amp;quot;string&amp;quot;,&amp;quot;value&amp;quot;:&amp;quot;&amp;quot;,&amp;quot;category&amp;quot;:&amp;quot;default&amp;quot;,&amp;quot;id&amp;quot;:&amp;quot;vjpSQinOnm368631&amp;quot;},{&amp;quot;name&amp;quot;:&amp;quot;连接&amp;quot;,&amp;quot;type&amp;quot;:&amp;quot;link&amp;quot;,&amp;quot;value&amp;quot;:&amp;quot;&amp;quot;,&amp;quot;category&amp;quot;:&amp;quot;default&amp;quot;,&amp;quot;id&amp;quot;:&amp;quot;bTgTIBXdcK985158&amp;quot;},{&amp;quot;name&amp;quot;:&amp;quot;便笺&amp;quot;,&amp;quot;type&amp;quot;:&amp;quot;string&amp;quot;,&amp;quot;value&amp;quot;:&amp;quot;&amp;quot;,&amp;quot;category&amp;quot;:&amp;quot;default&amp;quot;,&amp;quot;id&amp;quot;:&amp;quot;zBMsKBDmDU539907&amp;quot;}],&amp;quot;props&amp;quot;:{&amp;quot;x&amp;quot;:370.642857142857,&amp;quot;y&amp;quot;:9502.138888888889,&amp;quot;w&amp;quot;:96.5,&amp;quot;h&amp;quot;:54,&amp;quot;zindex&amp;quot;:190,&amp;quot;angle&amp;quot;:0},&amp;quot;shapeStyle&amp;quot;:{&amp;quot;alpha&amp;quot;:1},&amp;quot;lineStyle&amp;quot;:{&amp;quot;lineWidth&amp;quot;:1.5},&amp;quot;fillStyle&amp;quot;:{},&amp;quot;theme&amp;quot;:{},&amp;quot;path&amp;quot;:[{&amp;quot;actions&amp;quot;:[{&amp;quot;action&amp;quot;:&amp;quot;move&amp;quot;,&amp;quot;x&amp;quot;:&amp;quot;0&amp;quot;,&amp;quot;y&amp;quot;:&amp;quot;0&amp;quot;},{&amp;quot;action&amp;quot;:&amp;quot;line&amp;quot;,&amp;quot;x&amp;quot;:&amp;quot;w&amp;quot;,&amp;quot;y&amp;quot;:&amp;quot;0&amp;quot;},{&amp;quot;action&amp;quot;:&amp;quot;line&amp;quot;,&amp;quot;x&amp;quot;:&amp;quot;w&amp;quot;,&amp;quot;y&amp;quot;:&amp;quot;h&amp;quot;},{&amp;quot;action&amp;quot;:&amp;quot;line&amp;quot;,&amp;quot;x&amp;quot;:&amp;quot;0&amp;quot;,&amp;quot;y&amp;quot;:&amp;quot;h&amp;quot;},{&amp;quot;action&amp;quot;:&amp;quot;close&amp;quot;}]}],&amp;quot;fontStyle&amp;quot;:{},&amp;quot;textBlock&amp;quot;:[{&amp;quot;position&amp;quot;:{&amp;quot;x&amp;quot;:10,&amp;quot;y&amp;quot;:0,&amp;quot;w&amp;quot;:&amp;quot;w-20&amp;quot;,&amp;quot;h&amp;quot;:&amp;quot;h&amp;quot;},&amp;quot;text&amp;quot;:&amp;quot;KRipFile&amp;quot;}],&amp;quot;anchors&amp;quot;:[{&amp;quot;x&amp;quot;:&amp;quot;w/2&amp;quot;,&amp;quot;y&amp;quot;:&amp;quot;0&amp;quot;},{&amp;quot;x&amp;quot;:&amp;quot;w/2&amp;quot;,&amp;quot;y&amp;quot;:&amp;quot;h&amp;quot;},{&amp;quot;x&amp;quot;:&amp;quot;0&amp;quot;,&amp;quot;y&amp;quot;:&amp;quot;h/2&amp;quot;},{&amp;quot;x&amp;quot;:&amp;quot;w&amp;quot;,&amp;quot;y&amp;quot;:&amp;quot;h/2&amp;quot;}],&amp;quot;container&amp;quot;:&amp;quot;BHakKmhXrR914055&amp;quot;},{&amp;quot;id&amp;quot;:&amp;quot;WyuLmBRcHw545426&amp;quot;,&amp;quot;name&amp;quot;:&amp;quot;rectangle&amp;quot;,&amp;quot;title&amp;quot;:&amp;quot;矩形&amp;quot;,&amp;quot;category&amp;quot;:&amp;quot;basic&amp;quot;,&amp;quot;group&amp;quot;:&amp;quot;&amp;quot;,&amp;quot;groupName&amp;quot;:null,&amp;quot;locked&amp;quot;:false,&amp;quot;link&amp;quot;:&amp;quot;&amp;quot;,&amp;quot;children&amp;quot;:[],&amp;quot;parent&amp;quot;:&amp;quot;&amp;quot;,&amp;quot;resizeDir&amp;quot;:[&amp;quot;tl&amp;quot;,&amp;quot;tr&amp;quot;,&amp;quot;br&amp;quot;,&amp;quot;bl&amp;quot;,&amp;quot;l&amp;quot;,&amp;quot;t&amp;quot;,&amp;quot;r&amp;quot;,&amp;quot;b&amp;quot;],&amp;quot;attribute&amp;quot;:{&amp;quot;container&amp;quot;:false,&amp;quot;visible&amp;quot;:true,&amp;quot;rotatable&amp;quot;:true,&amp;quot;linkable&amp;quot;:true,&amp;quot;collapsable&amp;quot;:false,&amp;quot;collapsed&amp;quot;:false,&amp;quot;fixedLink&amp;quot;:false,&amp;quot;markerOffset&amp;quot;:5},&amp;quot;dataAttributes&amp;quot;:[{&amp;quot;name&amp;quot;:&amp;quot;序号&amp;quot;,&amp;quot;type&amp;quot;:&amp;quot;number&amp;quot;,&amp;quot;value&amp;quot;:&amp;quot;&amp;quot;,&amp;quot;category&amp;quot;:&amp;quot;default&amp;quot;,&amp;quot;id&amp;quot;:&amp;quot;bIKJpYlbMq425035&amp;quot;},{&amp;quot;name&amp;quot;:&amp;quot;名称&amp;quot;,&amp;quot;type&amp;quot;:&amp;quot;string&amp;quot;,&amp;quot;value&amp;quot;:&amp;quot;&amp;quot;,&amp;quot;category&amp;quot;:&amp;quot;default&amp;quot;,&amp;quot;id&amp;quot;:&amp;quot;jTnqDYXQYp583063&amp;quot;},{&amp;quot;name&amp;quot;:&amp;quot;所有者&amp;quot;,&amp;quot;type&amp;quot;:&amp;quot;string&amp;quot;,&amp;quot;value&amp;quot;:&amp;quot;&amp;quot;,&amp;quot;category&amp;quot;:&amp;quot;default&amp;quot;,&amp;quot;id&amp;quot;:&amp;quot;VDgQwJBtlS805709&amp;quot;},{&amp;quot;name&amp;quot;:&amp;quot;连接&amp;quot;,&amp;quot;type&amp;quot;:&amp;quot;link&amp;quot;,&amp;quot;value&amp;quot;:&amp;quot;&amp;quot;,&amp;quot;category&amp;quot;:&amp;quot;default&amp;quot;,&amp;quot;id&amp;quot;:&amp;quot;KIQOpnpUdP642043&amp;quot;},{&amp;quot;name&amp;quot;:&amp;quot;便笺&amp;quot;,&amp;quot;type&amp;quot;:&amp;quot;string&amp;quot;,&amp;quot;value&amp;quot;:&amp;quot;&amp;quot;,&amp;quot;category&amp;quot;:&amp;quot;default&amp;quot;,&amp;quot;id&amp;quot;:&amp;quot;sFvoOkpcHJ013594&amp;quot;}],&amp;quot;props&amp;quot;:{&amp;quot;x&amp;quot;:95,&amp;quot;y&amp;quot;:9422.138888888889,&amp;quot;w&amp;quot;:96.5,&amp;quot;h&amp;quot;:54,&amp;quot;zindex&amp;quot;:191,&amp;quot;angle&amp;quot;:0},&amp;quot;shapeStyle&amp;quot;:{&amp;quot;alpha&amp;quot;:1},&amp;quot;lineStyle&amp;quot;:{&amp;quot;lineWidth&amp;quot;:1.5},&amp;quot;fillStyle&amp;quot;:{},&amp;quot;theme&amp;quot;:{},&amp;quot;path&amp;quot;:[{&amp;quot;actions&amp;quot;:[{&amp;quot;action&amp;quot;:&amp;quot;move&amp;quot;,&amp;quot;x&amp;quot;:&amp;quot;0&amp;quot;,&amp;quot;y&amp;quot;:&amp;quot;0&amp;quot;},{&amp;quot;action&amp;quot;:&amp;quot;line&amp;quot;,&amp;quot;x&amp;quot;:&amp;quot;w&amp;quot;,&amp;quot;y&amp;quot;:&amp;quot;0&amp;quot;},{&amp;quot;action&amp;quot;:&amp;quot;line&amp;quot;,&amp;quot;x&amp;quot;:&amp;quot;w&amp;quot;,&amp;quot;y&amp;quot;:&amp;quot;h&amp;quot;},{&amp;quot;action&amp;quot;:&amp;quot;line&amp;quot;,&amp;quot;x&amp;quot;:&amp;quot;0&amp;quot;,&amp;quot;y&amp;quot;:&amp;quot;h&amp;quot;},{&amp;quot;action&amp;quot;:&amp;quot;close&amp;quot;}]}],&amp;quot;fontStyle&amp;quot;:{},&amp;quot;textBlock&amp;quot;:[{&amp;quot;position&amp;quot;:{&amp;quot;x&amp;quot;:10,&amp;quot;y&amp;quot;:0,&amp;quot;w&amp;quot;:&amp;quot;w-20&amp;quot;,&amp;quot;h&amp;quot;:&amp;quot;h&amp;quot;},&amp;quot;text&amp;quot;:&amp;quot;TcpIp&amp;quot;}],&amp;quot;anchors&amp;quot;:[{&amp;quot;x&amp;quot;:&amp;quot;w/2&amp;quot;,&amp;quot;y&amp;quot;:&amp;quot;0&amp;quot;},{&amp;quot;x&amp;quot;:&amp;quot;w/2&amp;quot;,&amp;quot;y&amp;quot;:&amp;quot;h&amp;quot;},{&amp;quot;x&amp;quot;:&amp;quot;0&amp;quot;,&amp;quot;y&amp;quot;:&amp;quot;h/2&amp;quot;},{&amp;quot;x&amp;quot;:&amp;quot;w&amp;quot;,&amp;quot;y&amp;quot;:&amp;quot;h/2&amp;quot;}],&amp;quot;container&amp;quot;:&amp;quot;BHakKmhXrR914055&amp;quot;},{&amp;quot;id&amp;quot;:&amp;quot;OAoeSwLfLV964816&amp;quot;,&amp;quot;name&amp;quot;:&amp;quot;rectangle&amp;quot;,&amp;quot;title&amp;quot;:&amp;quot;矩形&amp;quot;,&amp;quot;category&amp;quot;:&amp;quot;basic&amp;quot;,&amp;quot;group&amp;quot;:&amp;quot;&amp;quot;,&amp;quot;groupName&amp;quot;:null,&amp;quot;locked&amp;quot;:false,&amp;quot;link&amp;quot;:&amp;quot;&amp;quot;,&amp;quot;children&amp;quot;:[],&amp;quot;parent&amp;quot;:&amp;quot;&amp;quot;,&amp;quot;resizeDir&amp;quot;:[&amp;quot;tl&amp;quot;,&amp;quot;tr&amp;quot;,&amp;quot;br&amp;quot;,&amp;quot;bl&amp;quot;,&amp;quot;l&amp;quot;,&amp;quot;t&amp;quot;,&amp;quot;r&amp;quot;,&amp;quot;b&amp;quot;],&amp;quot;attribute&amp;quot;:{&amp;quot;container&amp;quot;:false,&amp;quot;visible&amp;quot;:true,&amp;quot;rotatable&amp;quot;:true,&amp;quot;linkable&amp;quot;:true,&amp;quot;collapsable&amp;quot;:false,&amp;quot;collapsed&amp;quot;:false,&amp;quot;fixedLink&amp;quot;:false,&amp;quot;markerOffset&amp;quot;:5},&amp;quot;dataAttributes&amp;quot;:[{&amp;quot;name&amp;quot;:&amp;quot;序号&amp;quot;,&amp;quot;type&amp;quot;:&amp;quot;number&amp;quot;,&amp;quot;value&amp;quot;:&amp;quot;&amp;quot;,&amp;quot;category&amp;quot;:&amp;quot;default&amp;quot;,&amp;quot;id&amp;quot;:&amp;quot;iKSjHEEmyn620191&amp;quot;},{&amp;quot;name&amp;quot;:&amp;quot;名称&amp;quot;,&amp;quot;type&amp;quot;:&amp;quot;string&amp;quot;,&amp;quot;value&amp;quot;:&amp;quot;&amp;quot;,&amp;quot;category&amp;quot;:&amp;quot;default&amp;quot;,&amp;quot;id&amp;quot;:&amp;quot;XuSILwRdCa072500&amp;quot;},{&amp;quot;name&amp;quot;:&amp;quot;所有者&amp;quot;,&amp;quot;type&amp;quot;:&amp;quot;string&amp;quot;,&amp;quot;value&amp;quot;:&amp;quot;&amp;quot;,&amp;quot;category&amp;quot;:&amp;quot;default&amp;quot;,&amp;quot;id&amp;quot;:&amp;quot;TLFGRcZtVM949190&amp;quot;},{&amp;quot;name&amp;quot;:&amp;quot;连接&amp;quot;,&amp;quot;type&amp;quot;:&amp;quot;link&amp;quot;,&amp;quot;value&amp;quot;:&amp;quot;&amp;quot;,&amp;quot;category&amp;quot;:&amp;quot;default&amp;quot;,&amp;quot;id&amp;quot;:&amp;quot;asYmowpsjt804903&amp;quot;},{&amp;quot;name&amp;quot;:&amp;quot;便笺&amp;quot;,&amp;quot;type&amp;quot;:&amp;quot;string&amp;quot;,&amp;quot;value&amp;quot;:&amp;quot;&amp;quot;,&amp;quot;category&amp;quot;:&amp;quot;default&amp;quot;,&amp;quot;id&amp;quot;:&amp;quot;rVOuWkvgdg273885&amp;quot;}],&amp;quot;props&amp;quot;:{&amp;quot;x&amp;quot;:509.2,&amp;quot;y&amp;quot;:9422.138888888889,&amp;quot;w&amp;quot;:96.5,&amp;quot;h&amp;quot;:54,&amp;quot;zindex&amp;quot;:192,&amp;quot;angle&amp;quot;:0},&amp;quot;shapeStyle&amp;quot;:{&amp;quot;alpha&amp;quot;:1},&amp;quot;lineStyle&amp;quot;:{&amp;quot;lineWidth&amp;quot;:1.5},&amp;quot;fillStyle&amp;quot;:{},&amp;quot;theme&amp;quot;:{},&amp;quot;path&amp;quot;:[{&amp;quot;actions&amp;quot;:[{&amp;quot;action&amp;quot;:&amp;quot;move&amp;quot;,&amp;quot;x&amp;quot;:&amp;quot;0&amp;quot;,&amp;quot;y&amp;quot;:&amp;quot;0&amp;quot;},{&amp;quot;action&amp;quot;:&amp;quot;line&amp;quot;,&amp;quot;x&amp;quot;:&amp;quot;w&amp;quot;,&amp;quot;y&amp;quot;:&amp;quot;0&amp;quot;},{&amp;quot;action&amp;quot;:&amp;quot;line&amp;quot;,&amp;quot;x&amp;quot;:&amp;quot;w&amp;quot;,&amp;quot;y&amp;quot;:&amp;quot;h&amp;quot;},{&amp;quot;action&amp;quot;:&amp;quot;line&amp;quot;,&amp;quot;x&amp;quot;:&amp;quot;0&amp;quot;,&amp;quot;y&amp;quot;:&amp;quot;h&amp;quot;},{&amp;quot;action&amp;quot;:&amp;quot;close&amp;quot;}]}],&amp;quot;fontStyle&amp;quot;:{},&amp;quot;textBlock&amp;quot;:[{&amp;quot;position&amp;quot;:{&amp;quot;x&amp;quot;:10,&amp;quot;y&amp;quot;:0,&amp;quot;w&amp;quot;:&amp;quot;w-20&amp;quot;,&amp;quot;h&amp;quot;:&amp;quot;h&amp;quot;},&amp;quot;text&amp;quot;:&amp;quot;DevDriver&amp;quot;}],&amp;quot;anchors&amp;quot;:[{&amp;quot;x&amp;quot;:&amp;quot;w/2&amp;quot;,&amp;quot;y&amp;quot;:&amp;quot;0&amp;quot;},{&amp;quot;x&amp;quot;:&amp;quot;w/2&amp;quot;,&amp;quot;y&amp;quot;:&amp;quot;h&amp;quot;},{&amp;quot;x&amp;quot;:&amp;quot;0&amp;quot;,&amp;quot;y&amp;quot;:&amp;quot;h/2&amp;quot;},{&amp;quot;x&amp;quot;:&amp;quot;w&amp;quot;,&amp;quot;y&amp;quot;:&amp;quot;h/2&amp;quot;}],&amp;quot;container&amp;quot;:&amp;quot;BHakKmhXrR914055&amp;quot;},{&amp;quot;id&amp;quot;:&amp;quot;xisxYSofoE114145&amp;quot;,&amp;quot;name&amp;quot;:&amp;quot;rectangle&amp;quot;,&amp;quot;title&amp;quot;:&amp;quot;矩形&amp;quot;,&amp;quot;category&amp;quot;:&amp;quot;basic&amp;quot;,&amp;quot;group&amp;quot;:&amp;quot;&amp;quot;,&amp;quot;groupName&amp;quot;:null,&amp;quot;locked&amp;quot;:false,&amp;quot;link&amp;quot;:&amp;quot;&amp;quot;,&amp;quot;children&amp;quot;:[],&amp;quot;parent&amp;quot;:&amp;quot;&amp;quot;,&amp;quot;resizeDir&amp;quot;:[&amp;quot;tl&amp;quot;,&amp;quot;tr&amp;quot;,&amp;quot;br&amp;quot;,&amp;quot;bl&amp;quot;,&amp;quot;l&amp;quot;,&amp;quot;t&amp;quot;,&amp;quot;r&amp;quot;,&amp;quot;b&amp;quot;],&amp;quot;attribute&amp;quot;:{&amp;quot;container&amp;quot;:false,&amp;quot;visible&amp;quot;:true,&amp;quot;rotatable&amp;quot;:true,&amp;quot;linkable&amp;quot;:true,&amp;quot;collapsable&amp;quot;:false,&amp;quot;collapsed&amp;quot;:false,&amp;quot;fixedLink&amp;quot;:false,&amp;quot;markerOffset&amp;quot;:5},&amp;quot;dataAttributes&amp;quot;:[{&amp;quot;name&amp;quot;:&amp;quot;序号&amp;quot;,&amp;quot;type&amp;quot;:&amp;quot;number&amp;quot;,&amp;quot;value&amp;quot;:&amp;quot;&amp;quot;,&amp;quot;category&amp;quot;:&amp;quot;default&amp;quot;,&amp;quot;id&amp;quot;:&amp;quot;gtrsbzrJZE508590&amp;quot;},{&amp;quot;name&amp;quot;:&amp;quot;名称&amp;quot;,&amp;quot;type&amp;quot;:&amp;quot;string&amp;quot;,&amp;quot;value&amp;quot;:&amp;quot;&amp;quot;,&amp;quot;category&amp;quot;:&amp;quot;default&amp;quot;,&amp;quot;id&amp;quot;:&amp;quot;lvguinlAnv754880&amp;quot;},{&amp;quot;name&amp;quot;:&amp;quot;所有者&amp;quot;,&amp;quot;type&amp;quot;:&amp;quot;string&amp;quot;,&amp;quot;value&amp;quot;:&amp;quot;&amp;quot;,&amp;quot;category&amp;quot;:&amp;quot;default&amp;quot;,&amp;quot;id&amp;quot;:&amp;quot;UJHMqVAeWj125425&amp;quot;},{&amp;quot;name&amp;quot;:&amp;quot;连接&amp;quot;,&amp;quot;type&amp;quot;:&amp;quot;link&amp;quot;,&amp;quot;value&amp;quot;:&amp;quot;&amp;quot;,&amp;quot;category&amp;quot;:&amp;quot;default&amp;quot;,&amp;quot;id&amp;quot;:&amp;quot;nAvDwRPMIs106882&amp;quot;},{&amp;quot;name&amp;quot;:&amp;quot;便笺&amp;quot;,&amp;quot;type&amp;quot;:&amp;quot;string&amp;quot;,&amp;quot;value&amp;quot;:&amp;quot;&amp;quot;,&amp;quot;category&amp;quot;:&amp;quot;default&amp;quot;,&amp;quot;id&amp;quot;:&amp;quot;dGmvSSejhQ264567&amp;quot;}],&amp;quot;props&amp;quot;:{&amp;quot;x&amp;quot;:647.757142857143,&amp;quot;y&amp;quot;:9422.138888888889,&amp;quot;w&amp;quot;:96.5,&amp;quot;h&amp;quot;:54,&amp;quot;zindex&amp;quot;:193,&amp;quot;angle&amp;quot;:0},&amp;quot;shapeStyle&amp;quot;:{&amp;quot;alpha&amp;quot;:1},&amp;quot;lineStyle&amp;quot;:{&amp;quot;lineWidth&amp;quot;:1.5},&amp;quot;fillStyle&amp;quot;:{},&amp;quot;theme&amp;quot;:{},&amp;quot;path&amp;quot;:[{&amp;quot;actions&amp;quot;:[{&amp;quot;action&amp;quot;:&amp;quot;move&amp;quot;,&amp;quot;x&amp;quot;:&amp;quot;0&amp;quot;,&amp;quot;y&amp;quot;:&amp;quot;0&amp;quot;},{&amp;quot;action&amp;quot;:&amp;quot;line&amp;quot;,&amp;quot;x&amp;quot;:&amp;quot;w&amp;quot;,&amp;quot;y&amp;quot;:&amp;quot;0&amp;quot;},{&amp;quot;action&amp;quot;:&amp;quot;line&amp;quot;,&amp;quot;x&amp;quot;:&amp;quot;w&amp;quot;,&amp;quot;y&amp;quot;:&amp;quot;h&amp;quot;},{&amp;quot;action&amp;quot;:&amp;quot;line&amp;quot;,&amp;quot;x&amp;quot;:&amp;quot;0&amp;quot;,&amp;quot;y&amp;quot;:&amp;quot;h&amp;quot;},{&amp;quot;action&amp;quot;:&amp;quot;close&amp;quot;}]}],&amp;quot;fontStyle&amp;quot;:{},&amp;quot;textBlock&amp;quot;:[{&amp;quot;position&amp;quot;:{&amp;quot;x&amp;quot;:10,&amp;quot;y&amp;quot;:0,&amp;quot;w&amp;quot;:&amp;quot;w-20&amp;quot;,&amp;quot;h&amp;quot;:&amp;quot;h&amp;quot;},&amp;quot;text&amp;quot;:&amp;quot;Device&amp;quot;}],&amp;quot;anchors&amp;quot;:[{&amp;quot;x&amp;quot;:&amp;quot;w/2&amp;quot;,&amp;quot;y&amp;quot;:&amp;quot;0&amp;quot;},{&amp;quot;x&amp;quot;:&amp;quot;w/2&amp;quot;,&amp;quot;y&amp;quot;:&amp;quot;h&amp;quot;},{&amp;quot;x&amp;quot;:&amp;quot;0&amp;quot;,&amp;quot;y&amp;quot;:&amp;quot;h/2&amp;quot;},{&amp;quot;x&amp;quot;:&amp;quot;w&amp;quot;,&amp;quot;y&amp;quot;:&amp;quot;h/2&amp;quot;}],&amp;quot;container&amp;quot;:&amp;quot;BHakKmhXrR914055&amp;quot;},{&amp;quot;id&amp;quot;:&amp;quot;UHqzWroPlq577563&amp;quot;,&amp;quot;name&amp;quot;:&amp;quot;rectangle&amp;quot;,&amp;quot;title&amp;quot;:&amp;quot;矩形&amp;quot;,&amp;quot;category&amp;quot;:&amp;quot;basic&amp;quot;,&amp;quot;group&amp;quot;:&amp;quot;&amp;quot;,&amp;quot;groupName&amp;quot;:null,&amp;quot;locked&amp;quot;:false,&amp;quot;link&amp;quot;:&amp;quot;&amp;quot;,&amp;quot;children&amp;quot;:[],&amp;quot;parent&amp;quot;:&amp;quot;&amp;quot;,&amp;quot;resizeDir&amp;quot;:[&amp;quot;tl&amp;quot;,&amp;quot;tr&amp;quot;,&amp;quot;br&amp;quot;,&amp;quot;bl&amp;quot;,&amp;quot;l&amp;quot;,&amp;quot;t&amp;quot;,&amp;quot;r&amp;quot;,&amp;quot;b&amp;quot;],&amp;quot;attribute&amp;quot;:{&amp;quot;container&amp;quot;:false,&amp;quot;visible&amp;quot;:true,&amp;quot;rotatable&amp;quot;:true,&amp;quot;linkable&amp;quot;:true,&amp;quot;collapsable&amp;quot;:false,&amp;quot;collapsed&amp;quot;:false,&amp;quot;fixedLink&amp;quot;:false,&amp;quot;markerOffset&amp;quot;:5},&amp;quot;dataAttributes&amp;quot;:[{&amp;quot;name&amp;quot;:&amp;quot;序号&amp;quot;,&amp;quot;type&amp;quot;:&amp;quot;number&amp;quot;,&amp;quot;value&amp;quot;:&amp;quot;&amp;quot;,&amp;quot;category&amp;quot;:&amp;quot;default&amp;quot;,&amp;quot;id&amp;quot;:&amp;quot;bMSPAbODWC241051&amp;quot;},{&amp;quot;name&amp;quot;:&amp;quot;名称&amp;quot;,&amp;quot;type&amp;quot;:&amp;quot;string&amp;quot;,&amp;quot;value&amp;quot;:&amp;quot;&amp;quot;,&amp;quot;category&amp;quot;:&amp;quot;default&amp;quot;,&amp;quot;id&amp;quot;:&amp;quot;NaSiSssmef087973&amp;quot;},{&amp;quot;name&amp;quot;:&amp;quot;所有者&amp;quot;,&amp;quot;type&amp;quot;:&amp;quot;string&amp;quot;,&amp;quot;value&amp;quot;:&amp;quot;&amp;quot;,&amp;quot;category&amp;quot;:&amp;quot;default&amp;quot;,&amp;quot;id&amp;quot;:&amp;quot;akxQrjvwsa050286&amp;quot;},{&amp;quot;name&amp;quot;:&amp;quot;连接&amp;quot;,&amp;quot;type&amp;quot;:&amp;quot;link&amp;quot;,&amp;quot;value&amp;quot;:&amp;quot;&amp;quot;,&amp;quot;category&amp;quot;:&amp;quot;default&amp;quot;,&amp;quot;id&amp;quot;:&amp;quot;DUDkXOUDTU766360&amp;quot;},{&amp;quot;name&amp;quot;:&amp;quot;便笺&amp;quot;,&amp;quot;type&amp;quot;:&amp;quot;string&amp;quot;,&amp;quot;value&amp;quot;:&amp;quot;&amp;quot;,&amp;quot;category&amp;quot;:&amp;quot;default&amp;quot;,&amp;quot;id&amp;quot;:&amp;quot;zVUUAAdvQb291594&amp;quot;}],&amp;quot;props&amp;quot;:{&amp;quot;x&amp;quot;:370.642857142857,&amp;quot;y&amp;quot;:9422.138888888889,&amp;quot;w&amp;quot;:96.5,&amp;quot;h&amp;quot;:54,&amp;quot;zindex&amp;quot;:194,&amp;quot;angle&amp;quot;:0},&amp;quot;shapeStyle&amp;quot;:{&amp;quot;alpha&amp;quot;:1},&amp;quot;lineStyle&amp;quot;:{&amp;quot;lineWidth&amp;quot;:1.5},&amp;quot;fillStyle&amp;quot;:{},&amp;quot;theme&amp;quot;:{},&amp;quot;path&amp;quot;:[{&amp;quot;actions&amp;quot;:[{&amp;quot;action&amp;quot;:&amp;quot;move&amp;quot;,&amp;quot;x&amp;quot;:&amp;quot;0&amp;quot;,&amp;quot;y&amp;quot;:&amp;quot;0&amp;quot;},{&amp;quot;action&amp;quot;:&amp;quot;line&amp;quot;,&amp;quot;x&amp;quot;:&amp;quot;w&amp;quot;,&amp;quot;y&amp;quot;:&amp;quot;0&amp;quot;},{&amp;quot;action&amp;quot;:&amp;quot;line&amp;quot;,&amp;quot;x&amp;quot;:&amp;quot;w&amp;quot;,&amp;quot;y&amp;quot;:&amp;quot;h&amp;quot;},{&amp;quot;action&amp;quot;:&amp;quot;line&amp;quot;,&amp;quot;x&amp;quot;:&amp;quot;0&amp;quot;,&amp;quot;y&amp;quot;:&amp;quot;h&amp;quot;},{&amp;quot;action&amp;quot;:&amp;quot;close&amp;quot;}]}],&amp;quot;fontStyle&amp;quot;:{},&amp;quot;textBlock&amp;quot;:[{&amp;quot;position&amp;quot;:{&amp;quot;x&amp;quot;:10,&amp;quot;y&amp;quot;:0,&amp;quot;w&amp;quot;:&amp;quot;w-20&amp;quot;,&amp;quot;h&amp;quot;:&amp;quot;h&amp;quot;},&amp;quot;text&amp;quot;:&amp;quot;DeviceManager&amp;quot;}],&amp;quot;anchors&amp;quot;:[{&amp;quot;x&amp;quot;:&amp;quot;w/2&amp;quot;,&amp;quot;y&amp;quot;:&amp;quot;0&amp;quot;},{&amp;quot;x&amp;quot;:&amp;quot;w/2&amp;quot;,&amp;quot;y&amp;quot;:&amp;quot;h&amp;quot;},{&amp;quot;x&amp;quot;:&amp;quot;0&amp;quot;,&amp;quot;y&amp;quot;:&amp;quot;h/2&amp;quot;},{&amp;quot;x&amp;quot;:&amp;quot;w&amp;quot;,&amp;quot;y&amp;quot;:&amp;quot;h/2&amp;quot;}],&amp;quot;container&amp;quot;:&amp;quot;BHakKmhXrR914055&amp;quot;},{&amp;quot;id&amp;quot;:&amp;quot;lgvTQWDIKT627673&amp;quot;,&amp;quot;name&amp;quot;:&amp;quot;linker&amp;quot;,&amp;quot;text&amp;quot;:&amp;quot;&amp;quot;,&amp;quot;group&amp;quot;:&amp;quot;&amp;quot;,&amp;quot;linkerType&amp;quot;:&amp;quot;broken&amp;quot;,&amp;quot;points&amp;quot;:[{&amp;quot;x&amp;quot;:805.8748015873016,&amp;quot;y&amp;quot;:9279},{&amp;quot;x&amp;quot;:805.8748015873016,&amp;quot;y&amp;quot;:9279}],&amp;quot;locked&amp;quot;:false,&amp;quot;dataAttributes&amp;quot;:[],&amp;quot;props&amp;quot;:{&amp;quot;zindex&amp;quot;:195},&amp;quot;lineStyle&amp;quot;:{&amp;quot;lineWidth&amp;quot;:1.5},&amp;quot;from&amp;quot;:{&amp;quot;x&amp;quot;:726.9996031746032,&amp;quot;y&amp;quot;:9279,&amp;quot;angle&amp;quot;:3.1415926535897936,&amp;quot;id&amp;quot;:&amp;quot;dPMkLbmxZq933058&amp;quot;},&amp;quot;to&amp;quot;:{&amp;quot;id&amp;quot;:&amp;quot;grTAZNaGTi273086&amp;quot;,&amp;quot;x&amp;quot;:884.75,&amp;quot;y&amp;quot;:9279,&amp;quot;angle&amp;quot;:0},&amp;quot;textBlock&amp;quot;:[]}]}&quot;&gt; &lt;/div&gt;" style="text;whiteSpace=wrap;html=1;" vertex="1" parent="1">
          <mxGeometry x="190" y="150" width="30" height="20" as="geometry" />
        </mxCell>
        <mxCell id="odrv6HUBPEatMj4lRxUb-3" value="QCoreApplication" style="swimlane;startSize=0;fillColor=#D5E8D4;strokeColor=#82b366;labelBackgroundColor=#D5E8D4;fillStyle=hatch;glass=0;shadow=1;swimlaneFillColor=#D5E8D4;gradientColor=#D5E8D4;" vertex="1" parent="1">
          <mxGeometry x="100" y="160" width="610" height="400" as="geometry" />
        </mxCell>
        <mxCell id="odrv6HUBPEatMj4lRxUb-5" value="Controller" style="whiteSpace=wrap;html=1;shape=swimlane;fontStyle=1;startSize=0;fillColor=#fff2cc;strokeColor=#d6b656;swimlaneFillColor=light-dark(#FFF2CC,#3E2800);" vertex="1" parent="odrv6HUBPEatMj4lRxUb-3">
          <mxGeometry x="70" y="30" width="450" height="220" as="geometry">
            <mxRectangle x="110" y="30" width="90" height="30" as="alternateBounds" />
          </mxGeometry>
        </mxCell>
        <mxCell id="odrv6HUBPEatMj4lRxUb-23" value="" style="whiteSpace=wrap;html=1;fillColor=#fff2cc;strokeColor=#d6b656;" vertex="1" parent="odrv6HUBPEatMj4lRxUb-5">
          <mxGeometry x="20" y="20" width="400" height="180" as="geometry" />
        </mxCell>
        <mxCell id="odrv6HUBPEatMj4lRxUb-24" value="TaskController" style="rounded=0;whiteSpace=wrap;html=1;" vertex="1" parent="odrv6HUBPEatMj4lRxUb-5">
          <mxGeometry x="90" y="50" width="120" height="60" as="geometry" />
        </mxCell>
        <mxCell id="odrv6HUBPEatMj4lRxUb-25" value="LogController" style="rounded=0;whiteSpace=wrap;html=1;" vertex="1" parent="odrv6HUBPEatMj4lRxUb-5">
          <mxGeometry x="240" y="50" width="120" height="60" as="geometry" />
        </mxCell>
        <mxCell id="odrv6HUBPEatMj4lRxUb-26" value="CloudServices" style="rounded=0;whiteSpace=wrap;html=1;" vertex="1" parent="odrv6HUBPEatMj4lRxUb-5">
          <mxGeometry x="90" y="130" width="270" height="60" as="geometry" />
        </mxCell>
        <mxCell id="odrv6HUBPEatMj4lRxUb-27" value="MainController" style="text;html=1;align=center;verticalAlign=middle;resizable=0;points=[];autosize=1;strokeColor=none;fillColor=none;" vertex="1" parent="odrv6HUBPEatMj4lRxUb-5">
          <mxGeometry x="170" y="20" width="100" height="30" as="geometry" />
        </mxCell>
        <mxCell id="odrv6HUBPEatMj4lRxUb-4" value="Model" style="whiteSpace=wrap;html=1;fillColor=#fff2cc;strokeColor=#d6b656;" vertex="1" parent="odrv6HUBPEatMj4lRxUb-3">
          <mxGeometry x="70" y="260" width="120" height="60" as="geometry" />
        </mxCell>
        <mxCell id="odrv6HUBPEatMj4lRxUb-15" value="ViewModel" style="whiteSpace=wrap;html=1;fillColor=#fff2cc;strokeColor=#d6b656;" vertex="1" parent="odrv6HUBPEatMj4lRxUb-3">
          <mxGeometry x="240" y="260" width="120" height="60" as="geometry" />
        </mxCell>
        <mxCell id="odrv6HUBPEatMj4lRxUb-16" value="QCommon" style="whiteSpace=wrap;html=1;fillColor=#fff2cc;strokeColor=#d6b656;" vertex="1" parent="odrv6HUBPEatMj4lRxUb-3">
          <mxGeometry x="400" y="260" width="120" height="60" as="geometry" />
        </mxCell>
        <mxCell id="odrv6HUBPEatMj4lRxUb-28" value="DevDeriver" style="whiteSpace=wrap;html=1;fillColor=#fff2cc;strokeColor=#d6b656;" vertex="1" parent="odrv6HUBPEatMj4lRxUb-3">
          <mxGeometry x="70" y="330" width="120" height="60" as="geometry" />
        </mxCell>
        <mxCell id="odrv6HUBPEatMj4lRxUb-29" value="Device" style="whiteSpace=wrap;html=1;fillColor=#fff2cc;strokeColor=#d6b656;" vertex="1" parent="odrv6HUBPEatMj4lRxUb-3">
          <mxGeometry x="240" y="330" width="120" height="60" as="geometry" />
        </mxCell>
        <mxCell id="odrv6HUBPEatMj4lRxUb-30" value="TcpIP" style="whiteSpace=wrap;html=1;fillColor=#fff2cc;strokeColor=#d6b656;" vertex="1" parent="odrv6HUBPEatMj4lRxUb-3">
          <mxGeometry x="400" y="330" width="120" height="60" as="geometry" />
        </mxCell>
        <mxCell id="odrv6HUBPEatMj4lRxUb-11" value="QGuiApplication" style="swimlane;startSize=0;fillColor=default;shadow=1;swimlaneFillColor=#D5E8D4;" vertex="1" parent="1">
          <mxGeometry x="120" y="610" width="570" height="460" as="geometry" />
        </mxCell>
        <mxCell id="odrv6HUBPEatMj4lRxUb-12" value="View" style="swimlane;startSize=0;fillColor=#d5e8d4;strokeColor=#82b366;swimlaneFillColor=light-dark(#fff2cc, #3e2800);gradientColor=default;" vertex="1" parent="odrv6HUBPEatMj4lRxUb-11">
          <mxGeometry x="70" y="40" width="450" height="230" as="geometry" />
        </mxCell>
        <mxCell id="odrv6HUBPEatMj4lRxUb-17" value="" style="whiteSpace=wrap;html=1;fillColor=#fff2cc;strokeColor=#d6b656;" vertex="1" parent="odrv6HUBPEatMj4lRxUb-12">
          <mxGeometry x="20" y="30" width="390" height="180" as="geometry" />
        </mxCell>
        <mxCell id="odrv6HUBPEatMj4lRxUb-31" value="&lt;span style=&quot;color: rgb(51, 51, 51); font-family: &amp;quot;Open Sans&amp;quot;, &amp;quot;Clear Sans&amp;quot;, &amp;quot;Helvetica Neue&amp;quot;, Helvetica, Arial, &amp;quot;Segoe UI Emoji&amp;quot;, sans-serif; font-size: 16px; orphans: 4; text-align: left; white-space-collapse: preserve; background-color: rgb(255, 255, 255);&quot;&gt;QTaskTableView&lt;/span&gt;" style="whiteSpace=wrap;html=1;" vertex="1" parent="odrv6HUBPEatMj4lRxUb-12">
          <mxGeometry x="50" y="70" width="140" height="60" as="geometry" />
        </mxCell>
        <mxCell id="odrv6HUBPEatMj4lRxUb-32" value="&lt;span style=&quot;color: rgb(51, 51, 51); font-family: &amp;quot;Open Sans&amp;quot;, &amp;quot;Clear Sans&amp;quot;, &amp;quot;Helvetica Neue&amp;quot;, Helvetica, Arial, &amp;quot;Segoe UI Emoji&amp;quot;, sans-serif; font-size: 16px; orphans: 4; text-align: left; white-space-collapse: preserve; background-color: rgb(255, 255, 255);&quot;&gt;QNormalLogView&lt;/span&gt;" style="whiteSpace=wrap;html=1;" vertex="1" parent="odrv6HUBPEatMj4lRxUb-12">
          <mxGeometry x="210" y="70" width="150" height="60" as="geometry" />
        </mxCell>
        <mxCell id="odrv6HUBPEatMj4lRxUb-33" value="&lt;span style=&quot;color: rgb(51, 51, 51); font-family: &amp;quot;Open Sans&amp;quot;, &amp;quot;Clear Sans&amp;quot;, &amp;quot;Helvetica Neue&amp;quot;, Helvetica, Arial, &amp;quot;Segoe UI Emoji&amp;quot;, sans-serif; font-size: 16px; orphans: 4; text-align: left; white-space-collapse: preserve; background-color: rgb(255, 255, 255);&quot;&gt;CloudServiceManager&lt;/span&gt;" style="whiteSpace=wrap;html=1;" vertex="1" parent="odrv6HUBPEatMj4lRxUb-12">
          <mxGeometry x="50" y="140" width="310" height="50" as="geometry" />
        </mxCell>
        <mxCell id="odrv6HUBPEatMj4lRxUb-34" value="&lt;span style=&quot;font-family: &amp;quot;Open Sans&amp;quot;, &amp;quot;Clear Sans&amp;quot;, &amp;quot;Helvetica Neue&amp;quot;, Helvetica, Arial, &amp;quot;Segoe UI Emoji&amp;quot;, sans-serif; font-size: 16px; orphans: 4; text-align: left; white-space: pre-wrap;&quot;&gt;QNormalMainWindow&lt;/span&gt;" style="text;html=1;align=center;verticalAlign=middle;resizable=0;points=[];autosize=1;strokeColor=none;fillColor=none;fontColor=default;labelBackgroundColor=light-dark(#fff2cc, #ededed);" vertex="1" parent="odrv6HUBPEatMj4lRxUb-12">
          <mxGeometry x="125" y="30" width="180" height="30" as="geometry" />
        </mxCell>
        <mxCell id="odrv6HUBPEatMj4lRxUb-35" value="Model" style="whiteSpace=wrap;html=1;fillColor=#fff2cc;strokeColor=#d6b656;" vertex="1" parent="odrv6HUBPEatMj4lRxUb-11">
          <mxGeometry x="70" y="300" width="120" height="60" as="geometry" />
        </mxCell>
        <mxCell id="odrv6HUBPEatMj4lRxUb-36" value="ViewModel" style="whiteSpace=wrap;html=1;fillColor=#fff2cc;strokeColor=#d6b656;" vertex="1" parent="odrv6HUBPEatMj4lRxUb-11">
          <mxGeometry x="240" y="300" width="120" height="60" as="geometry" />
        </mxCell>
        <mxCell id="odrv6HUBPEatMj4lRxUb-37" value="QCommon" style="whiteSpace=wrap;html=1;fillColor=#fff2cc;strokeColor=#d6b656;" vertex="1" parent="odrv6HUBPEatMj4lRxUb-11">
          <mxGeometry x="400" y="300" width="120" height="60" as="geometry" />
        </mxCell>
        <mxCell id="odrv6HUBPEatMj4lRxUb-38" value="DevDeriver" style="whiteSpace=wrap;html=1;fillColor=#fff2cc;strokeColor=#d6b656;" vertex="1" parent="odrv6HUBPEatMj4lRxUb-11">
          <mxGeometry x="70" y="370" width="120" height="60" as="geometry" />
        </mxCell>
        <mxCell id="odrv6HUBPEatMj4lRxUb-39" value="Device" style="whiteSpace=wrap;html=1;fillColor=#fff2cc;strokeColor=#d6b656;" vertex="1" parent="odrv6HUBPEatMj4lRxUb-11">
          <mxGeometry x="240" y="370" width="120" height="60" as="geometry" />
        </mxCell>
        <mxCell id="odrv6HUBPEatMj4lRxUb-40" value="TcpIP" style="whiteSpace=wrap;html=1;fillColor=#fff2cc;strokeColor=#d6b656;" vertex="1" parent="odrv6HUBPEatMj4lRxUb-11">
          <mxGeometry x="400" y="370" width="120" height="60" as="geometry" />
        </mxCell>
        <mxCell id="odrv6HUBPEatMj4lRxUb-41" value="Web/App/Pc" style="rounded=0;whiteSpace=wrap;html=1;fillColor=#ffe6cc;strokeColor=#d79b00;" vertex="1" parent="1">
          <mxGeometry x="770" y="290" width="230" height="120" as="geometry" />
        </mxCell>
        <mxCell id="odrv6HUBPEatMj4lRxUb-42" value="Web/App/Pc" style="rounded=0;whiteSpace=wrap;html=1;fillColor=#ffe6cc;strokeColor=#d79b00;" vertex="1" parent="1">
          <mxGeometry x="780" y="755" width="230" height="120" as="geometry" />
        </mxCell>
        <mxCell id="odrv6HUBPEatMj4lRxUb-43" style="edgeStyle=orthogonalEdgeStyle;rounded=0;orthogonalLoop=1;jettySize=auto;html=1;exitX=1;exitY=0.5;exitDx=0;exitDy=0;entryX=0;entryY=0.5;entryDx=0;entryDy=0;" edge="1" parent="1" source="odrv6HUBPEatMj4lRxUb-33" target="odrv6HUBPEatMj4lRxUb-42">
          <mxGeometry relative="1" as="geometry" />
        </mxCell>
        <mxCell id="odrv6HUBPEatMj4lRxUb-44" style="edgeStyle=orthogonalEdgeStyle;rounded=0;orthogonalLoop=1;jettySize=auto;html=1;exitX=1;exitY=0.5;exitDx=0;exitDy=0;entryX=0;entryY=0.5;entryDx=0;entryDy=0;" edge="1" parent="1" source="odrv6HUBPEatMj4lRxUb-26" target="odrv6HUBPEatMj4lRxUb-41">
          <mxGeometry relative="1" as="geometry" />
        </mxCell>
      </root>
    </mxGraphModel>
  </diagram>
</mxfile>
